<?xml version="1.0" encoding="utf-8"?>
<!-- Generator: Adobe Illustrator 19.0.0, SVG Export Plug-In . SVG Version: 6.00 Build 0)  -->
<svg version="1.1" id="Layer_1" xmlns="http://www.w3.org/2000/svg" xmlns:xlink="http://www.w3.org/1999/xlink" x="0px" y="0px"
	 viewBox="0 0 2000 2000" style="enable-background:new 0 0 2000 2000;" xml:space="preserve">
<style type="text/css">
	.st0{fill:#90D8F8;}
	.st1{fill:#A15826;}
	.st2{fill:#3AB0E4;}
	.st3{fill:#2F2F2F;}
	.st4{fill:#DC3331;}
	.st5{fill:#FBF8F8;}
</style>
<g id="XMLID_4_">
	<path id="XMLID_637_" class="st0" d="M333,1249.4c0.3-1.5,1.4-2.1,2.6-2.8c4.7-2.6,9.5-5.2,14.2-8c3.3-1.9,6.6-3.9,9.6-6.2
		c1.6-1.2,3.4-1.8,5-2.8c4.5-2.8,9-5.6,13.7-7.9c5.4-2.6,10.7-5.5,16-8.3c2.2-1.2,4.7-1.8,6.8-3.1c4.2-2.5,8.9-3.9,13.2-6
		c3.3-1.6,6.8-2.7,10-4.5c4.1-2.3,8.8-3.2,13.1-5.2c3.4-1.5,6.9-2.6,10.1-4.5c0.6-0.4,1.4-0.5,2.1-0.8c4.3-1.4,8.6-3,12.9-4.6
		c4-1.5,7.9-3.3,12.1-4.3c2.6-0.6,5-1.7,7.5-2.6c5.6-2,11-4.2,16.7-5.8c4.5-1.3,8.8-3.3,13.5-4.1c0.4-0.1,0.9-0.2,1.3-0.4
		c4.8-2.3,10-3.5,15.1-5c4.1-1.2,8.1-2.8,12.1-4c4.5-1.3,8.9-3.1,13.6-3.8c0.4-0.1,0.9-0.2,1.3-0.3c3.6-1.5,7.4-2,11-3.3
		c3.7-1.4,7.8-1.8,11.3-3.7c0.4-0.2,0.8-0.3,1.3-0.4c6.2-0.6,11.9-3.2,17.9-4.6c4.9-1.1,9.7-2.6,14.5-3.9c5.8-1.5,11.9-2.2,17.5-4.7
		c4.6-0.3,8.7-2.6,13.3-3.2c2.4-0.3,4.7-1.6,7.2-1.9c3.5-0.4,6.9-1.6,10.3-2.3c6.2-1.2,12.2-3.4,18.6-3.7c0.6,0,1.2-0.2,1.7-0.4
		c3.5-1.4,7.2-1.3,10.8-2c5.3-1,10.8-1.7,16.1-2.5c0.7-0.1,1.5-0.3,2.2-0.2c4.4,0,8.8-0.9,13.1-1.6c0.7-0.1,1.5-0.2,2.2-0.2
		c2.4,0,4.7-0.1,7-0.7c1.4-0.3,2.9-0.1,4.4-0.2c5-0.2,10,0.4,15-0.8c1-0.2,2.1-0.1,3.1-0.1c12.6,0,25.1,0,37.7,0
		c1.9,0,3.8-0.1,5.7,0.6c0.6,0.2,1.2,0.2,1.7,0.2c6.3,0.1,12.7,0.1,19,0.8c3.5,0.4,7,1,10.5,1.4c0.9,0.1,1.7,0.4,2.6,0.4
		c6.4,0.1,12.6,1.4,18.8,2.5c2,0.4,4.1,0.4,6.1,0.8c2.5,0.5,4.9,0.8,7.3,1.6c0.7,0.2,1.4,0.4,2.2,0.4c3.5,0,6.7,0.9,10,1.9
		c0.6,0.2,1.1,0.5,1.7,0.5c6.2,0.4,11.9,3.2,18.1,4c2.7,0.3,5.3,1.6,8.1,2.2c4.5,1,8.9,2.1,13.3,3.2c4.7,1.2,9.5,2.2,14.3,2.5
		c2.5,0.2,5,0.5,7.4,1c2.6,0.6,5.3,0.6,7.9,0.7c2.5,0,5,0.4,7.5,0.6c8.5,0.5,17.1,0.5,25.7,0c1.9-0.1,3.8-0.5,5.7-0.5
		c7,0.1,13.7-1.5,20.6-2.1c5.9-0.6,11.5-2.6,17.3-3.6c4.5-0.8,8.9-2,13.2-3.6c1.5-0.6,3.1-0.8,4.7-1.2c1-0.3,2-0.5,3-0.8
		c3.8-1.2,7.5-2.5,11.3-3.8c0.3-0.1,0.6-0.2,0.8-0.3c5.9-1,11.6-3,17.5-4.4c4.7-1.1,9.5-1.8,14.2-3.1c5.2-1.5,10.7-2,16-2.9
		c3.2-0.5,6.4-1.1,9.6-1.6c5.4-0.9,10.7-1.8,16.2-2c2.9-0.1,5.8-0.7,8.8-1.1c6.9-0.8,13.7-1.7,20.7-1.6c1.8,0,3.5,0,5.3-0.6
		c0.3-0.1,0.6-0.2,0.9-0.2c4.7,0.2,9.4-1,14.1-1c19.8,0,39.6,0,59.4,0c1.8,0,3.5,0.1,5.3,0.5c1.4,0.3,2.9,0.3,4.4,0.3
		c1.8,0.1,3.5,0.1,5.3,0.5c1.4,0.3,2.9,0.3,4.4,0.4c5,0.2,10,0.2,15,0.7c5,0.4,10,0.8,15,1.3c4.7,0.5,9.4,0.3,14,1.4
		c0.4,0.1,0.9,0.2,1.3,0.2c3.1-0.1,6.2,0.5,9.2,0.9c6.3,0.9,12.5,1.9,18.9,1.8c0.9,0,1.8,0.2,2.6,0.5c2.7,1.1,5.4,1.2,8.2,1.3
		c2.8,0.1,5.6,0.4,8.3,1c5.2,1.3,10.5,1.4,15.7,2.5c7.6,1.5,15.5,2.1,23.1,4c3.3,0.8,6.7,0.9,10.1,1.3c1,0.1,2.1,0,3.1,0.3
		c4.6,1.6,9.3,1.5,14,1.5c3,0,5.9-0.2,8.9,0.1c4.4,0.5,8.8,0.3,13.2,0c3.4-0.3,6.8-0.2,10.2-0.1c4.5,0.1,8.8-0.5,13.1-1.5
		c2.3-0.5,4.7-0.7,7-0.9c4.2-0.3,8.1-1.3,12.2-2.2c5.6-1.1,11.2-2.3,16.8-3.7c2.9-0.7,5.6-1.8,8.4-2.7c2.1-0.7,4.2-1.2,6.4-1.9
		c1.8-0.5,3.6-1.1,5.3-2c2.9-1.4,6-2.3,9.1-3.4c1.8-0.6,3.7-1.1,5.5-1.8c1.3-0.5,2.6-0.5,3.9-0.5c4.4,0,8.9,0,13.3,0
		c1.5,0,2.9-0.1,4.4-0.6c4.5-1.6,6.1-5.3,6.6-9.6c0.2-1.9,0.1-3.8-0.4-5.7c-1-4-1.3-8.1-1.5-12.2c-0.2-3.9,1.2-7,3.4-9.8
		c2.9-3.7,6.2-7.2,10.8-8.9c1.2-0.5,2.5-1,3.8-1c3.5,0,7,0.1,10.5,1.2c7.7,2.5,15.6,4.3,23.3,6.9c6.9,2.3,13.9,4,20.8,6.1
		c2.5,0.8,5,1.9,7.7,1.9c0.6,0,1.2,0.3,1.7,0.5c5.3,2.2,10.9,3.5,16.5,5c4.3,1.1,8.6,2.2,12.7,3.6c4.7,1.7,9.6,2.7,14.5,4
		c4.4,1.2,8.9,2.1,13.3,3.4c3.9,1.2,8.1,1.7,11.9,3.5c0.5,0.2,1.2,0.2,1.7,0.3c5.5,0.8,10.7,3.1,16.3,3.8c7.6,2.8,15.6,4.2,23.4,6.5
		c4.1,1.2,8.3,1.8,12.5,3c6.4,1.8,12.8,3.4,19.2,5c4.6,1.1,9.2,2,13.8,3.1c2.2,0.5,4.4,0.8,6.4,1.8c1.5,0.8,3.2,0.7,4.7,1.1
		c5,1.3,10.1,2.3,15.1,3.5c3,0.7,5.9,1.6,8.9,2.4c3.4,0.8,6.7,2.2,10.4,2c0.7,0,1.4,0.4,2.1,0.6c1.8,0.6,3.6,1.5,5.5,1.6
		c4.5,0.3,7.6,3,10.9,5.5c3.2,2.4,4.1,6,3.5,9.9c-0.1,0.5-0.3,1.2-0.7,1.6c-2,1.7-3.8,3.6-6.5,4.4c-3.8,1.1-7.5,2.6-11.7,2.2
		c-1.8-0.2-3.5,0.3-5,1.3c-0.9,0.6-1.8,0.9-2.7,1.4c-2.4,1.3-3.5,3.9-2.2,6.4c1.2,2.2,2.5,4.1,5.1,5.2c6.6,2.6,13.5,4.3,20.4,5.7
		c0.6,0.1,1.2,0.2,1.7,0.3c1,0.2,1.6,0.8,1.8,1.7c0.3,1,0.5,2,0.5,3c0,6.2,0,12.4,0,18.6c0,0.1,0,0.3,0,0.4c-0.2,3.3-1,4-4.1,3.4
		c-4.6-0.9-9.2-2.1-13.9-2.8c-6.1-0.9-12.1-2.6-18.2-3.2c-2.6-0.3-5.2-1.2-7.8-1.6c-4.5-0.7-9-1.2-13.5-1.9c-6-1-12-1.2-18-1.8
		c-2-0.2-4.1-0.5-6.1-1.1c-1.9-0.5-3.8-0.6-5.7-0.7c-2.9,0-5.9,0.1-8.8-0.7c-1.3-0.3-2.6-0.2-4-0.2c-2.8-0.1-5.6,0.1-8.4-0.7
		c-1.3-0.3-2.6-0.2-4-0.2c-1.6,0-3.2-0.1-4.8-0.5c-1.4-0.3-2.9-0.4-4.4-0.4c-19.8,0-39.6,0-59.4,0c-1.9,0-3.8,0-5.7,0.5
		c-1.3,0.3-2.6,0.2-4,0.3c-1.9,0.1-3.8,0-5.7,0.6c-0.4,0.1-0.9,0.2-1.3,0.2c-5.9-0.3-11.7,1.1-17.6,1c-2.2,0-4.4,0.3-6.6,0.8
		c-4.7,1.1-9.6,1.7-14.4,1.8c-2.4,0-4.7,0.6-7,0.9c-6.6,0.9-13.1,1.7-19.6,3.3c-2.7,0.6-5.5,0.8-8.3,1.2c-0.6,0.1-1.2,0-1.8,0.2
		c-6.8,2.1-13.8,2.9-20.7,4.5c-1.3,0.3-2.6,0.5-3.9,0.6c-1.2,0.1-2.3,0.3-3.4,0.8c-2.3,1.1-4.6,1.9-7.2,1.9c-0.3,0-0.6,0-0.9,0.1
		c-2.4,1.7-5.4,1.3-8,2c-6.1,1.5-12.3,3-18.4,4.4c-3,0.7-6,1.2-8.8,2.7c-1.9,1-4.3,1-6.5,1.3c-1.3,0.2-2.6,0.5-3.8,1.1
		c-0.5,0.3-1.1,0.5-1.7,0.6c-5.9,0.5-11.3,3.2-17.2,3.9c-4.4,2.2-9.5,1.9-14,3.9c-1.2,0.5-2.6,0.7-3.9,0.8c-3.3,0.3-6.2,1.7-9.4,2.5
		c-6.4,1.6-13,2.7-19.5,3.8c-3.8,0.7-7.5,1.4-11.4,1.3c-4.7-0.1-9.5-0.1-14.2,0c-3.6,0.1-7-0.6-10.5-1.4c-4.4-1-8.9-2-13.2-3.5
		c-3.7-1.3-7.3-3-10.8-5c-3.5-2-6.6-4.4-9.5-7.1c-5.8-5.5-7-15.3-2.1-21.8c1.1-1.4,2-2.9,3.3-4.1c2.1-2,3.4-4.5,4.9-6.8
		c1-1.6,0.9-3.3-0.3-4.9c-1.4-1.8-2.9-3.2-5.3-3.7c-2.6-0.5-5.2-1.1-7.9-1c-5.2,0.1-10.3,0-15.5,0c-3.2,0-6.5-0.2-9.7,0.7
		c-1,0.3-2.1,0.1-3.1,0.1c-5.6,0-11.2,0.1-16.8,0.1c-1.6,0-3.2,0-4.8,0.5c-1,0.3-2,0.3-3.1,0.3c-5.5-0.1-10.9,0.6-16.2,1.6
		c-0.3,0.1-0.6,0.1-0.9,0.1c-4.7-0.3-9.4,1.1-14.1,1c-1.2,0-2.3,0.2-3.5,0.4c-5.1,0.9-10.1,1.9-15.3,2.2c-0.7,0-1.5,0.2-2.2,0.4
		c-5.2,1-10.4,2-15.7,2.3c-0.6,0-1.2,0.1-1.7,0.3c-6.9,2.1-14.1,2.9-21.2,4.3c-4.2,0.8-8.1,2.6-12.3,3.1c-4.6,0.5-9,1.7-13.3,3
		c-5.8,1.7-11.7,2.8-17.5,4.7c-7.7,2.5-15.8,3.9-23.2,7.1c-0.7,0.3-1.4,0.3-2.2,0.5c-2.3,0.5-4.6,0.8-6.7,2.1
		c-1.1,0.7-2.5,0.8-3.8,1.1c-4.1,1.1-8.2,2.4-12.1,4.1c-2.7,1.1-5.6,1.8-8.4,2.7c-3.9,1.4-7.8,2.6-11.7,4
		c-5.9,2.2-11.8,4.6-17.7,6.7c-4.4,1.5-8.6,3.6-12.9,5.4c-3.1,1.3-6.4,2.3-9.5,3.6c-5.4,2.3-10.7,5-16.2,7
		c-4.8,1.8-9.3,4.3-14.1,6.2c-4.6,1.8-8.9,4.4-13.4,6.6c-2.6,1.3-5.4,2.3-8,3.7c-2.6,1.4-5.4,2.3-7.8,4c-1.9,1.3-4.1,2.3-6.2,3.3
		c-4.7,2.2-9.1,4.9-13.6,7.3c-3.5,1.9-7,3.7-10.4,5.8c-9.5,5.6-19.2,10.8-28.5,16.7c-5.2,3.3-10.6,6.3-15.5,10.1
		c-1.6,1.3-3.5,2.1-5.3,3.2c-4.1,2.7-8,5.5-12.1,8.1c-7.1,4.5-13.6,9.8-20.4,14.7c-2.6,1.9-5.4,3.6-8,5.5c-2,1.5-4,3-5.8,4.7
		c-5.5,4.9-11.7,8.9-17.1,14c-3.2,3-6.7,5.7-10.1,8.6c-0.7,0.6-1.3,1.2-1.9,1.8c-3.2,2.9-6,6.1-9.3,8.8c-1.7,1.3-3,3.2-4,5.3
		c-1,2.1-2.5,3.6-4.3,4.9c-2.6,1.9-5.1,4-7.6,6c-2.6,2.1-5.2,4.3-8.8,4.6c-2.7,1.8-6.2,1.9-8.7,4.1c-1.4,1.2-2.9,1.4-4.4,0.3
		c-1-0.8-2.1-1.2-3.3-0.7c-3.1,1.1-6.4,0.5-9.6,1.4c-1.5,0.4-3.3,0.3-4.8,0c-2.3-0.5-4.7-0.3-7-0.8c-5.4-1-10.5-3-14-7.7
		c-1.7-2.2-2.5-4.7-2.6-7.4c-0.1-2.9-0.3-5.9,0.6-8.8c0.3-0.8,0.2-1.8,0.2-2.6c1.7-0.4,2.3-1.7,2.6-3.3c0.2-1.2,0.1-2.5,0.5-3.5
		c1.9-4,3.7-8,6.1-11.7c3.6-5.4,6.7-11.1,9-17.2c2.1-5.4,3.8-10.9,3.1-16.8c0-0.1,0-0.3,0-0.4c0.2-2.7-0.6-5.2-1.8-7.6
		c-1.6-3.1-4.1-5.4-6.7-7.5c-2.4-2.1-5.5-2.7-8.4-3.8c-2.8-1-5.6-1.7-8.6-1.7c-1.3,0-2.7,0-4-0.3c-2-0.5-4.1-0.6-6.1-0.6
		c-5.6,0-11.2,0.3-16.8,0.7c-6.2,0.4-12.3,0.8-18.4,2c-4,0.8-8.1,1.4-12.1,2.4c-4.5,1.2-9.3,1.4-13.6,3.5c-0.3,0.1-0.6,0.1-0.9,0.1
		c-2.4,0-4.6,0.9-6.9,1.6c-1.3,0.4-2.5,0.9-3.8,1c-4.1,0.6-7.9,2.2-11.8,3.5c-4.2,1.4-8.4,2.7-12.5,4.1c-4.3,1.5-8.7,2.7-12.8,4.6
		c-1.2,0.6-2.5,0.8-3.8,1.1c-0.9,0.2-1.8,0.2-2.5,0.7c-1.6,1.1-3.5,1.4-5.4,2c-5.6,1.9-11.5,2.5-17.1,4.6c-0.8,0.3-1.7,0.5-2.6,0.6
		c-2.8,0.4-5.6,0.6-8.3,1.1c-5.7,1-11.4,1.6-16.9-0.8c-0.4-0.2-0.9-0.2-1.3-0.2c-1.6,0-2.8-0.7-3.9-1.9c-0.8-0.9-1.6-1.7-2.5-2.5
		c-2.1-1.9-3-4.4-3.2-7.1c-0.5-6,0.4-11.8,2.1-17.5c0.6-2.1,1.3-4.3,2.3-6.2c3.3-5.9,6.4-11.9,8.9-18.2c1.7-4.1,3.1-8.2,3.8-12.6
		c0.6-3.5,0.5-6.7-0.4-10c-1.3-4.4-3.8-8.2-7.5-10.7c-5.3-3.5-11.5-5.4-17.9-5.6c-6.3-0.3-12.7,0-19,0c-1.5,0-2.9,0.2-4.4,0.5
		c-2.7,0.6-5.5,0.9-8.3,1.3c-3.1,0.5-6.2,0.6-9.1,1.4c-6,1.6-12.2,2.3-18,4.3c-2.3,0.8-4.8,1.8-7.2,2c-5.7,0.4-10.7,3-16.2,4.4
		c-5.4,1.3-10.7,3.4-15.9,5.2c-5.8,2.1-11.7,4-17.5,6.2c-7.1,2.7-14.4,5-21.5,8c-5.3,2.2-10.7,4.1-16,6.4c-1.3,0.6-2.6,1.3-4,1.8
		c-3.7,1.4-7.4,2.8-11.2,4.1c-6.8,2.4-13.3,5.6-20.2,7.8c-2.9,0.9-5.9,1.8-8.8,2.9c-4.5,1.7-9,3.6-13.7,4.9
		c-7.7,2.1-15.2,4.5-22.9,6.6c-3.1,0.9-6.3,1.2-9.5,2.2c-2.1,0.6-4.3,0.9-6.5,1c-5,0.2-10,0.1-15.1,0.1c-1.7,0-3.2-0.5-4.7-1.1
		c-1.8-0.8-3.3-2.1-3.5-4.3c-0.2-2.2-0.3-4.4,0.5-6.6c1-2.8,2.1-5.5,3.5-8.1c2.3-4.2,5.1-7.9,7.8-11.8c2.8-4,5.9-7.8,9.3-11.2
		c5-5,9.7-10.3,15.7-14.2C334.9,1251.1,334.7,1250.6,333,1249.4z M965.4,1164.6C965.4,1164.7,965.4,1164.7,965.4,1164.6
		c-5.3,0-10.6,0-15.9,0c-1,0-2.1-0.2-3.1,0.1c-5.2,1.4-10.5,0.6-15.8,1.5c-6.8,1.1-13.7,1.6-20.5,2.8c-4.9,0.9-9.9,1.6-14.8,2.5
		c-5.5,1-11,2-16.4,3.6c-5.5,1.6-11.1,2.9-16.6,4.5c-5.2,1.6-10.3,3.5-15.2,5.8c-2.9,1.3-5.8,3-9,3.5c-0.7,0.1-1.3,0.6-2,0.9
		c-4.4,2.1-8.7,4.3-13.1,6.4c-1.2,0.6-2.4,1.1-3.5,1.8c-4.7,3-9.4,5.9-14.2,8.9c-4.9,3-8.7,7-11.6,11.9c-2.4,4.1-1.8,9.3,1.4,12.7
		c1.8,1.9,3.8,3.6,6.1,5c2.4,1.5,5,2.6,7.6,3.6c6.6,2.6,13.4,4.7,20.6,4.3c3.1-0.2,6.2,0,9.3-0.1c1.2,0,2.4,0,3.5-0.3
		c4.1-1,8.3-1.8,12.4-3.2c5.5-1.9,11.2-3.6,16.3-6.7c4.7-2.7,9.7-4.7,14.1-8c2.5-1.8,5.1-3.6,7.7-5.1c3.7-2,6.9-4.5,10.1-7.1
		c5.7-4.6,11.3-9.3,17.9-12.8c3.8-2,7.6-3.9,11.6-5.3c3.9-1.4,7.8-2.6,11.8-3.9c1-0.3,2-0.6,3-0.7c1.8-0.1,3.5-0.5,5.2-0.8
		c6.4-1.1,12.8-1.9,19.3-1.9c4,0,8,0.1,11.9-0.8c1.9-0.4,3.8-0.8,5.7-0.9c4.3-0.3,8.5-1,12.6-2.1c3.4-0.9,6.7-2.3,10.2-3
		c6.6-1.3,12.5-4.3,18.7-6.6c1.2-0.4,2-1.2,2.5-2.4c0.2-0.6,0.1-1.2-0.5-1.5c-0.4-0.2-0.8-0.3-1.2-0.4c-5.4-0.9-10.8-1.7-16.1-2.7
		c-3.1-0.6-6.2-0.6-9.2-1c-5.3-0.7-10.5-1.7-15.8-1.6c-0.7,0-1.5,0.1-2.2-0.1c-3.6-1-7.3-0.7-11-0.7
		C973.1,1164.6,969.3,1164.6,965.4,1164.6z M1498.5,1150.4c5.1-0.2,11.4,0.3,17.7-0.7c4-0.6,8.2-0.5,12.3-0.9
		c5.7-0.5,11.3-1.8,17-2.3c5-0.4,9.8-1.8,14.7-2.7c2.9-0.5,5.6-1.6,8.5-2.2c3.1-0.7,5.9-1.9,8.7-3c1.8-0.7,2.2-2.9,0.9-4.4
		c-0.6-0.7-1.3-1.1-2.2-1.4c-1.8-0.7-3.7-0.9-5.6-0.9c-9.3,0.3-18.5-0.1-27.8,0.6c-8.9,0.7-17.9,0.7-26.8,2
		c-7.4,1-14.9,1.8-22.3,2.8c-1.6,0.2-3.2,0.6-4.8,0.8c-4.2,0.6-8.5,1-12.6,2c-1.1,0.3-2.3,0.5-3.5,0.6c-3.9,0.3-7.3,2-11,3.2
		c-1.1,0.3-1.4,2-0.6,3c0.8,1,1.7,1.5,3,1.6c4.2,0.3,8.4,1.2,12.7,1c1-0.1,2.1-0.1,3.1,0.2c2.3,0.7,4.7,0.6,7,0.6
		C1490.5,1150.4,1493.9,1150.4,1498.5,1150.4z"/>
	<path id="XMLID_636_" class="st1" d="M1131.2,1025.8c2.6,0.4,5.3,0.1,7.9,0c10.3-0.6,20.6-1.1,31-1.2c0.9,0,1.8,0,2.7-0.1
		c11.2-1.9,22.7-1.7,34-2.6c3.5-0.3,7-0.6,10.6-1c6.2-0.6,12.4-0.9,18.6-1.1c0.7,0,1.5-0.1,2.2-0.2c6.5-1.2,13.2-1.5,19.8-2.1
		c6.9-0.7,13.8-1.4,20.7-2.1c4-0.4,7.9-0.8,11.9-1.3c12.8-1.5,25.5-2.9,38.2-4.4c9.2-1.1,18.5-2.2,27.7-3.5
		c8.2-1.1,16.3-2.4,24.5-3.7c2-0.3,4.1-0.5,6.1-0.8c8.8-1.3,17.5-2.6,26.3-4c7.1-1.1,14.2-2.5,21.4-3.6c9.8-1.5,19.5-3.4,29.2-5
		c7-1.2,13.9-2.6,20.9-3.8c6.5-1.1,13.2-1.9,19.5-3.9c0.7-0.2,1.4-0.3,2.2-0.4c3.8-0.7,7.5-1.4,11.3-2.2c6.8-1.5,13.6-2.5,20.4-3.9
		c5.5-1.1,10.9-2.5,16.4-3.8c1.9-0.4,3.7-0.9,5.6-1.1c2.1-0.3,4.1-0.6,6-1.3c1.2-0.4,2.6-0.6,3.9-0.9c5-1.1,10.1-2.1,15.1-3.2
		c4.5-1,8.9-2.2,13.3-3.2c7.9-1.9,15.8-3.7,23.7-5.6c1.3-0.3,2.3,0,3.3,0.8c1.3,1,2.5,2.1,3.7,3.2c3.6,3.6,7.6,6.9,10.9,10.9
		c-0.7,1.5-1.9,2.7-3.1,3.7c-4.4,3.7-8.8,7.4-13,11.3c-2.7,2.5-5.4,5-8.3,7.3c-5.4,4.6-10.8,9.1-15.9,14.1c-0.6,0.6-1.2,1.3-1.9,1.8
		c-8.6,6.6-16,14.4-24.3,21.2c-4.5,3.6-8.5,7.7-12.8,11.6c-0.5,0.5-1.1,1-1.7,1.4c-5.5,4-10.2,8.9-15.4,13.3
		c-4.6,3.9-8.9,8.1-13.4,12.2c-0.3,0.3-0.7,0.6-1,0.9c-5.6,4.8-11.2,9.6-16.7,14.4c-1.1,1-2.3,1.7-3.7,2.3
		c-4.9,2.1-10.1,3.3-15.2,4.8c-3.4,1-6.7,2.1-10.2,2.9c-5.7,1.3-11.5,2.4-17.3,3.5c-1.7,0.3-3.4,0.7-5.2,0.9
		c-5.1,0.5-10.3,1.1-15.3,1.9c-6.1,1-12.3,0.9-18.5,1.4c-5.4,0.4-10.9-0.3-16.3-0.5c-7.7-0.2-15.2-1.6-22.9-2.3
		c-5.5-0.5-11-2.2-16.6-2.7c-5.6-0.5-11-1.9-16.6-2.6c-6.3-0.7-12.5-2.1-18.8-2.9c-4.8-0.6-9.6-1.5-14.4-2.1
		c-3.8-0.5-7.6-0.6-11.4-1.1c-5.1-0.8-10.2-1.5-15.4-1.7c-3.7-0.1-7.3-0.6-11-1.1c-5.6-0.7-11.1-1.5-16.7-1.6c-5-0.1-10-1.1-15-0.9
		c-0.1,0-0.3,0-0.4,0c-6.9-1.2-13.8-0.6-20.7-1.5c-21.1,0-42.2,0-63.3,0c-1.2,0-2.4-0.1-3.5,0.1c-5.8,1.2-11.8,0.4-17.6,1.4
		c-4.9,0.8-10,0.8-15,1.1c-0.6,0-1.2,0.1-1.8,0.2c-3.8,0.5-7.6,1-11.4,1.5c-7.2,1-14.3,1.7-21.4,2.9c-9,1.6-18.1,2.8-26.8,5.5
		c-0.4,0.1-0.9,0.2-1.3,0.3c-5,1.1-10.1,2-15.1,3.3c-6.1,1.6-12.2,3.5-18.2,5.4c-9.7,3.2-19.5,5.6-29.4,7.9c-4.6,1.1-9.2,1.9-14,2.2
		c-2.9,0.2-5.8,0.8-8.8,1.1c-5.1,0.5-10.3,1.3-15.4,1.3c-9.4,0.2-18.9,0.5-28.3-0.6c-3.5-0.4-7.1-0.2-10.6-0.9
		c-2.6-0.5-5.2-0.7-7.9-1c-6.7-0.8-13.4-2.3-19.9-3.9c-8.4-2.1-16.8-4.5-25.3-6.4c-5.2-1.2-10.4-2.3-15.5-3.4
		c-7.5-1.7-15.1-2.3-22.6-3.9c-3.8-0.8-7.6-0.8-11.4-1.5c-6.5-1.1-13.1-2-19.8-2.1c-0.6,0-1.2,0-1.8-0.1c-7.2-1-14.4-1.3-21.6-1.4
		c-14.6-0.2-29.2-0.8-43.8,0.6c-6.3,0.6-12.7,0.7-19,1.1c-1,0.1-2,0.3-3.1,0.4c-5.5,0.7-11.1,1.4-16.7,2.1c-3.5,0.5-7,0.7-10.5,1.4
		c-5.8,1.2-11.7,1.4-17.4,3c-0.1,0-0.3,0-0.4,0c-7.3,1.6-14.7,3.2-22,4.8c-1.7,0.4-3.4,0.9-5.2,1.2c-4.9,1.1-9.8,2.2-14.7,3.3
		c-1.6,0.1-2.7-1-3.9-1.8c-13-9.5-26-18.8-38.8-28.5c-8.8-6.6-17.3-13.7-26-20.5c-5.2-4.1-10.4-8.2-15.5-12.5
		c-7.8-6.6-15.7-12.9-23.4-19.6c-9.5-8.2-18.9-16.5-28.2-24.9c-7.2-6.5-14.3-13.2-21.4-19.8c-9.3-8.6-18.3-17.6-27.3-26.5
		c-3.1-3.1-2.5-4,0.1-6.3c0.5-0.5,1.3-0.8,1.8-1.3c2.1-2.7,4.7-2.5,7.6-1.6c7.2,2.3,14.3,4.6,21.6,6.6c3.5,1,7.2,1.7,10.7,2.8
		c4.4,1.3,8.8,2.4,13.2,3.5c6.9,1.8,13.7,3.5,20.6,5.3c4.9,1.3,9.7,2.6,14.5,3.9c0.6,0.2,1.1,0.3,1.7,0.5
		c10.6,2.4,21.3,4.8,31.8,7.7c5.4,1.4,11,2.3,16.4,3.5c5.2,1.1,10.4,2.2,15.6,3.4c7.6,1.8,15.2,3.6,23,4.7c0.4,0.1,0.9,0.1,1.3,0.2
		c5.2,1.7,10.7,2.2,16,3.4c7.6,1.6,15.4,2.9,23,4.3c1.2,0.2,2.3,0.4,3.5,0.6c7,1.3,13.9,2.8,20.9,3.9c5.4,0.9,10.8,1.5,16.1,2.7
		c2.1,0.5,4.4,0.2,6.6-0.4c0.8-0.3,1.6-0.8,2.5-0.3c3.9,0.5,7.8,1,11.8,1.5c1.1,0.1,2,0.4,2.6,1.4c0.5,0.8,0.9,1.5,1.8,1.8
		c4.6,1.7,9.1,3.2,14.1,2.2c0.9-0.3,1.8-0.2,2.6,0.3c0.1,0.5,0.4,0.8,0.9,0.8c3.8,0,7.4,0.9,11.1,1.7c1.8,0.4,3.7,0.6,5.5-0.2
		c1.3-0.4,2.5-0.2,3.7,0.6c0.1,0.1,0.2,0.3,0.3,0.3c4.4,0.7,8.8,1.5,13.2,2.1c1.1,0.2,2.3,0.4,3.3-0.4c2-0.4,4-0.3,5.9,0.3
		c0.5,0.3,0.9,1,1.4,1c3-0.1,5.8,0.8,8.7,1.2c1.8,0.2,3.5,0.7,5.2,0.8c2.8,0.2,5.6-0.2,8.4,0.6c0.6,0.2,1.4-0.1,2.2-0.2
		c1.2-0.2,2.3-0.5,3.5-0.8c0.6,0.6,1.2,1.3,2.2,1.3c3.1,0.2,6.2,0.6,9.3,0.8c6.8,0.5,13.5,1.1,20.2,2c4.2,0.6,8.5,0.6,12.8,0.9
		c4.9,0.3,9.7,0.7,14.5,1.3c4.5,0.5,9.1,0.7,13.7,0.9c5.5,0.3,11,0.3,16.3,1c7.2,1,14.4,1.2,21.6,1.5c15.9,0.6,31.9,1,47.8,1.8
		c14.6,0.7,29.2,0.6,43.8,0.8c7.1,0.1,14.2,0.2,21.3,0.2c3.1,0,6.2-0.1,9.2-0.2c5.2,0.8,10.4,0.7,15.6-0.3c0.4,0.1,0.8,0.4,1.2,0.4
		c3.8-0.1,7.6-0.2,11.5-0.3c1.5,0,2.9-0.3,4.4,0.2c1.6,0,3.3,0,4.9,0c1.2-0.4,2.5-0.6,3.8-0.5c2.6,0.3,5.1,0.5,7.8,0.3
		c6.7-0.5,13.5-0.7,20.2-1C1125.7,1026.2,1128.5,1026.4,1131.2,1025.8z"/>
	<path id="XMLID_635_" class="st2" d="M333,1249.4c1.7,1.2,1.9,1.7,0.7,2.5c-6,3.9-10.7,9.2-15.7,14.2c-3.4,3.5-6.5,7.3-9.3,11.2
		c-2.7,3.8-5.5,7.6-7.8,11.8c-1.4,2.6-2.5,5.3-3.5,8.1c-0.8,2.2-0.6,4.4-0.5,6.6c0.2,2.1,1.7,3.4,3.5,4.3c1.4,0.7,3,1.2,4.7,1.1
		c5,0,10,0,15.1-0.1c2.2-0.1,4.4-0.4,6.5-1c3.1-0.9,6.3-1.3,9.5-2.2c7.7-2.1,15.2-4.6,22.9-6.6c4.7-1.3,9.2-3.1,13.7-4.9
		c2.9-1.1,5.9-2,8.8-2.9c6.9-2.1,13.4-5.4,20.2-7.8c3.7-1.3,7.5-2.7,11.2-4.1c1.4-0.5,2.7-1.2,4-1.8c5.3-2.3,10.7-4.2,16-6.4
		c7.1-3,14.4-5.3,21.5-8c5.8-2.2,11.7-4.1,17.5-6.2c5.3-1.9,10.5-3.9,15.9-5.2c5.4-1.3,10.5-3.9,16.2-4.4c2.4-0.2,4.9-1.2,7.2-2
		c5.9-2.1,12.1-2.7,18-4.3c3-0.8,6.1-1,9.1-1.4c2.8-0.4,5.5-0.7,8.3-1.3c1.5-0.3,2.9-0.5,4.4-0.5c6.3,0,12.7-0.2,19,0
		c6.4,0.3,12.6,2.1,17.9,5.6c3.7,2.5,6.2,6.3,7.5,10.7c1,3.3,1,6.5,0.4,10c-0.8,4.4-2.2,8.5-3.8,12.6c-2.5,6.3-5.6,12.3-8.9,18.2
		c-1.1,1.9-1.7,4.1-2.3,6.2c-1.6,5.7-2.6,11.5-2.1,17.5c0.2,2.7,1,5.2,3.2,7.1c0.9,0.8,1.7,1.6,2.5,2.5c1.1,1.1,2.3,1.9,3.9,1.9
		c0.4,0,0.9,0,1.3,0.2c5.5,2.4,11.2,1.8,16.9,0.8c2.8-0.5,5.5-0.7,8.3-1.1c0.9-0.1,1.8-0.3,2.6-0.6c5.5-2.1,11.5-2.7,17.1-4.6
		c1.8-0.6,3.7-0.9,5.4-2c0.8-0.5,1.6-0.6,2.5-0.7c1.3-0.3,2.6-0.5,3.8-1.1c4.1-1.9,8.5-3.2,12.8-4.6c4.2-1.4,8.4-2.7,12.5-4.1
		c3.8-1.3,7.7-3,11.8-3.5c1.3-0.2,2.6-0.6,3.8-1c2.2-0.8,4.4-1.6,6.9-1.6c0.3,0,0.6,0,0.9-0.1c4.3-2.1,9.1-2.3,13.6-3.5
		c4-1,8.1-1.6,12.1-2.4c6.1-1.2,12.2-1.6,18.4-2c5.6-0.4,11.2-0.7,16.8-0.7c2.1,0,4.1,0,6.1,0.6c1.3,0.3,2.6,0.3,4,0.3
		c3,0,5.8,0.7,8.6,1.7c2.9,1,5.9,1.7,8.4,3.8c2.6,2.2,5.1,4.4,6.7,7.5c1.2,2.4,2.1,4.9,1.8,7.6c0,0.1,0,0.3,0,0.4
		c0.7,5.9-1,11.4-3.1,16.8c-2.3,6.1-5.4,11.8-9,17.2c-2.5,3.7-4.2,7.7-6.1,11.7c-0.5,1-0.4,2.3-0.5,3.5c-0.2,1.6-0.9,2.8-2.6,3.3
		c-1.4-1.8-2.1-3.8-2.6-6c-1.9-7.9-5.7-14.9-11.9-20.3c-4.2-3.7-9.3-6-15-6.8c-4.4-0.6-8.8-1-13.2-0.6c-5.1,0.4-10.3,1-15.3,2.3
		c-2.7,0.7-5.6,0.8-8.2,1.6c-3.3,1-6.6,1.6-9.8,2.5c-8.9,2.6-17.8,5.2-26.7,7.9c-2,0.6-3.8,1.6-5.7,2.2c-6.6,2.2-13.1,4.3-19.6,6.9
		c-3,1.2-6,2.3-9.1,3.4c-8.4,2.8-16.5,6.4-24.7,9.6c-7.7,3-15.3,6-22.9,9.1c-2.5,1-4.9,2.1-7.3,3.1c-9.3,4-18.7,8-28,12
		c-5.7,2.4-11.4,4.8-17,7.3c-2.7,1.2-5.6,1.6-8.4,2.7c-3.8,1.6-7.8,2.6-11.8,3.8c-0.3,0.1-0.6,0.1-0.9,0.2c-5,2.3-10.5,2.7-15.9,3.7
		c-3.6,0.7-7.3,0.7-10.8-1c-3.2-1.5-4.7-3.9-4.8-7.3c0-0.6,0.1-1.2,0.1-1.8c1.4-0.7,1.4-0.9,0.5-2c0.1-0.5,0.2-1.1,0.3-1.6
		c1.8-0.7,2.4-2.1,2.1-4c0.4-1,0.9-2.1,1.3-3.1c1.2-0.2,1.7-0.9,1.5-2.1c1.2-2.8,3.1-5.3,4.8-7.9c3.9-6,8.5-11.5,12.9-17.2
		c5.4-7,9.6-14.7,12.2-23.2c1.3-0.8,1.3-0.9,0.5-2c0.1-0.5,0.1-1.1,0.2-1.6c0.7-0.3,1.4-0.7,1.4-1.5c0.3-2.6,0.3-5.3,0-7.9
		c-0.1-0.8-0.8-1.2-1.5-1.4c-0.8-4.8-3.8-8-7.6-10.7c-3.3-2.4-6.9-4.4-10.9-5.4c-2.2-2.5-2.9-2.7-5.5-1.5c-0.5-0.1-1-0.2-1.5-0.2
		c-0.8-1.4-0.9-1.4-2-0.6c-0.8-0.1-1.7-0.2-2.5-0.2c-0.4-0.4-0.6-1.1-1.1-1.2c-4.2-1.1-8.4-1.9-12.7-0.8c-1.3,0-2.5,0-3.8,0
		c-5.2-1.1-10.2-0.1-15.3,0.8c-0.6,0.1-0.9,0.7-1.1,1.3c-1.4,0.1-2.8,0.2-4.2,0.3c-1.1-0.9-1.3-0.9-2,0.6c-0.8,0.1-1.6,0.1-2.5,0.2
		c-2-1.2-2.5-1.1-3.7,0.7c-0.5,0.1-1.1,0.1-1.6,0.2c-1.1-0.9-1.2-0.9-2,0.5c-1.1,0.1-2.2,0.3-3.3,0.4c-1.1-0.9-1.2-0.8-2,0.5
		c-0.5,0.1-1,0.2-1.6,0.3c-2-0.8-3-0.4-4.7,1.5c-0.8,0.1-1.6,0.2-2.4,0.3c-0.2-0.2-0.4-0.5-0.7-0.5c-2.7-0.1-5.1,0.4-6.7,2.8
		c-0.8,0.1-1.6,0.2-2.4,0.3c-0.6-0.8-1.4-0.6-2.2-0.3c-1.1,0.4-2.2,0.6-2.3,2c-5.4,1.4-10.7,3.3-16,5.1c-5.7,2-11.3,4.4-17.1,6.1
		c-2.7,0.8-5.2,2-7.8,3.1c-5.8,2.5-11.7,4.9-17.5,7.4c-5.4,2.4-10.8,4.7-16.1,7.2c-5.1,2.3-10,5-15.2,7.1c-2.7,1.1-5.2,2.8-7.9,4
		c-3.1,1.3-6.2,2.8-9.2,4.3c-5,2.5-9.9,5.2-14.9,7.8c-10.9,5.5-21.8,11.1-32.8,16.4c-8.6,4.1-17.2,8.5-26.1,11.9
		c-1.9,0.7-3.6,1.9-5.6,2.7c-5.5,2.1-10.8,4.7-16.3,6.7c-5.8,2.1-11.6,4.3-17.5,6.2c-4.4,1.4-8.7,2.7-13.1,3.9
		c-8.6,2.4-17.3,3.8-26.2,3.2c-4.1-0.3-7.8-1.5-10.6-4.7c-1.8-2-2.8-4.4-3-7.2c-0.4-6.2,0.8-12,3.1-17.7c2.7-6.6,5.9-12.8,9.6-18.9
		c1.1-1.7,2.3-3.3,4.1-4.6c6.3-4.6,12.5-9.4,18.9-13.9c6.5-4.6,12.8-9.4,19.2-14.1c2.4-1.7,4.9-3.3,7.3-5
		c7.5-5.2,14.9-10.6,22.4-15.7c9.1-6.3,18.2-12.5,27.4-18.6c10.9-7.2,21.9-14.3,32.9-21.5c6.3-4.1,12.5-8.4,18.7-12.5
		c7.4-4.9,14.9-9.5,22.2-14.5c2.9-2,6-3.7,8.8-5.9C331,1249.9,332,1249.6,333,1249.4z"/>
	<path id="XMLID_634_" class="st3" d="M1069.2,1027.2c-5.2,1-10.4,1.1-15.6,0.3c0.2-1.1,1.1-1.7,1.8-2.4
		c6.2-5.2,12.5-10.3,18.7-15.6c17-14.5,33.3-29.6,48.6-45.8c11.5-12.3,22.5-25,32.6-38.5c10.8-14.3,20.3-29.4,28.5-45.3
		c4-7.7,7.2-15.8,10.3-24c2.3-6.1,4.3-12.3,6.1-18.5c1-3.5,1.8-7.2,2.5-10.8c3.4-16.5,4.4-33.1,3-49.8c-1-11.5-3.2-22.8-6.5-33.8
		c-5.6-18.2-13.5-35.2-23.6-51.3c-11.4-18-24.9-34.4-39.7-49.8c-13.8-14.4-28.9-27.4-44.3-40c-5.6-4.6-11.4-8.9-17.2-13.2
		c-1.5-1.1-2.8-2.1-3.3-3.9c-0.3-1.1-1.1-1.7-2.3-1.7c-2.2-0.1-3.9-1.2-5.6-2.4c-11.2-7.9-22.6-15.5-34.2-22.8
		c-8.2-5.2-16.5-10.3-25-15.1c-6.8-3.8-13.4-7.9-20.3-11.7c-7.2-4-14.5-7.8-21.8-11.7c-5.9-3.1-11.7-6.3-17.6-9.3
		c-5.9-3-11.9-5.9-17.8-8.8c-9.2-4.4-18.4-8.7-27.6-13.1c-2.1-1-2.2-2.1-0.4-3.6c3.1-2.5,6.6-4,10.6-3.8c3.7,0.2,7.4,0.3,11,0.8
		c5,0.7,10,0.6,15,1.1c4.6,0.4,9.1,0.6,13.7,0.9c0.7,0,1.5,0,2.2,0.2c4.3,1.3,8.8,1.2,13.2,1.4c7.7,0.3,15.3,1.3,22.9,2
		c4.1,0.4,8.2,0.7,12.4,1.1c0.7,0.1,1.5,0,2.2,0.2c6,1.7,12.3,1.3,18.4,2.2c8.2,1.1,16.4,2,24.6,3c7,0.8,14.1,1.7,21.1,2.5
		c2.8,0.3,5.6,0.8,8.3,1.2c3.4,0.5,6.7,0.9,10.1,1.5c9.2,1.6,18.5,2.2,27.5,4.4c0.4,0.1,0.9,0.1,1.3,0.2c7.6,1.1,15.2,2.1,22.8,3.4
		c11.8,2.1,23.5,4.4,35.3,6.5c0.9,0.2,1.7,0.4,2.6,0.5c8.3,1.3,16.5,3.2,24.7,5c4.5,1,9,1.7,13.4,2.8c13.4,3.2,26.8,5.9,40.1,9.2
		c4.9,1.2,9.8,2.2,14.6,3.8c3.2,1.1,6.6,1.6,9.8,2.5c11.4,3.2,22.8,6.1,34.1,9.4c7.1,2,14.1,4.4,21.1,6.6c2.5,0.8,5.1,1.4,7.6,2.3
		c9.6,3.2,19.4,6.2,29,9.4c3.4,1.1,6.6,2.5,9.9,3.7c3,1.1,6.1,2.2,9.1,3.3c8.2,2.9,16.4,5.8,24.6,8.8c5.5,2.1,10.9,4.6,16.4,6.5
		c5.5,1.9,10.7,4.3,16,6.4c6.9,2.7,13.6,5.7,20.4,8.6c4.9,2.1,9.7,4.3,14.5,6.5c5,2.3,9.9,4.5,14.8,6.9c6.4,3.1,12.8,6.1,19.1,9.3
		c7.7,4,15.4,8.1,23.1,12.2c7.1,3.8,14.2,7.7,21.3,11.7c3.5,1.9,6.8,4.1,10.2,6.1c6.7,4.1,13.4,8,20,12.2c5.7,3.6,11.4,7.4,17,11.2
		c5.7,3.9,11.4,7.8,17,11.9c6.6,4.7,13.2,9.5,19.7,14.3c9.5,7.2,18.8,14.7,28,22.4c10.2,8.5,20,17.4,29.7,26.6
		c6.7,6.4,13.4,12.9,19.9,19.6c1.6,1.7,3.2,3.4,4.8,5.2c0.6,0.7,1,1.4,1.4,2.2c0.4,0.8,0,1.8-0.9,2.2c-1.7,0.8-3.5,1.5-5.3,2.2
		c-7.7,3.1-15.4,6.1-23,9.2c-7.1,2.9-14.1,6-21.2,8.9c-5.6,2.3-11.3,4.4-16.9,6.7c-5.1,2.1-10,4.3-15.1,6.4c-1.6,0.7-3.4,1.1-5,1.8
		c-6.7,2.8-13.3,5.6-20,8.3c-6,2.5-12.1,4.6-18,7.3c-5.1,2.3-10.5,3.9-15.5,6.5c-2.1,1.1-4.4,1.7-6.6,2.6c-6.2,2.5-12.3,5-18.4,7.5
		c-5.6,2.3-11.2,4.5-16.8,6.8c-7.4,3-14.7,6.1-22.1,9.1c-2.9,1.2-5.8,2.3-8.6,3.5c-10.5,4.3-21,8.6-31.5,12.9
		c-4.8,2-9.6,3.8-14.4,5.7c-6,2.4-12,5-18,7.4c-7.4,3-14.8,5.9-22.2,8.9c-7.8,3.2-15.5,6.5-23.3,9.7c-5.3,2.2-10.7,4.2-16.1,6.3
		c-2.1,0.8-4.1,1.7-6.1,2.6c-6.4,3-13.1,5.3-19.7,7.9c-9.6,3.9-19,8-28.6,12c-2.3,1-4.7,1.6-7.1,2.6c-7.6,3.2-15.2,6.4-23,9.3
		c-4.7,1.8-9.2,4-13.9,5.7c-8.4,3.2-16.5,7.1-25,10.1c-4.7,1.7-9.3,3.7-13.9,5.8c-2.7,1.3-5.5,2.2-8.2,3.3
		c-5.5,2.1-10.8,4.7-16.4,6.7c-5.1,1.8-10,4.2-15.1,6.4c-2.3,1-4.7,1.8-7,2.7c-6.5,2.7-13,5.6-19.6,8.1c-6.8,2.5-13.3,5.5-20,8.2
		c-9.7,3.9-19.5,7.7-29.2,11.4c-1.4,0.5-2,1.5-2.7,2.7c-2.7,0.6-5.5,0.5-8.3,0.6c-6.7,0.3-13.5,0.4-20.2,1c-2.7,0.2-5.2,0-7.8-0.3
		c2.3-1.8,4.9-3.1,7.6-4.2c7.8-3.2,15.6-6.3,23.4-9.4c1.9-0.8,3.9-1.4,5.8-2.2c5.2-2.2,10.2-4.6,15.5-6.5c7.9-2.9,15.5-6.4,23.4-9.4
		c2.8-1,5.4-2.2,8.2-3.4c4.8-2,9.5-3.9,14.3-5.9c5.5-2.2,11-4.4,16.4-6.6c5.5-2.2,10.9-4.4,16.3-6.8c6.4-2.7,13-4.8,19.3-7.8
		c1.9-0.9,3.8-1.7,5.7-2.4c8.1-3.2,16.1-6.4,24.2-9.7c5.7-2.3,11.5-4.7,17.2-7c3.3-1.3,6.6-2.6,9.8-4c4.5-1.9,8.9-4,13.5-5.6
		c8-2.8,15.5-6.6,23.4-9.4c6.2-2.2,12.2-5.2,18.4-7.5c7.2-2.7,14.2-5.8,21.3-8.7c4.9-2,9.7-4.2,14.7-6.1c2.9-1.1,5.5-2.7,8.4-3.8
		c2.1-0.6,1.9-0.4,2.8-0.8c10-4.1,19.9-8.2,29.9-12.2c4.5-1.8,9.1-3.6,13.6-5.4c9.5-3.9,19-8,28.6-11.9c10-4,20-7.8,30-11.9
		c9.4-3.8,18.7-7.9,28.1-11.8c7-2.9,14-5.5,20.9-8.4c9.4-4,18.9-7.6,28.3-11.4c9.6-3.9,19.1-7.9,28.6-11.8c2.3-1,4.6-2,6.9-2.9
		c5.5-2.2,11-4.2,16.5-6.5c10.7-4.3,21.3-8.7,31.9-13.1c2.9-1.2,5.7-2.3,8.6-3.5c5.3-2.2,10.7-4.3,16-6.5c4.4-1.8,8.7-3.6,13.1-5.4
		c1.3-0.5,1.6-1.8,0.7-2.9c-0.7-0.8-1.4-1.5-2.1-2.2c-6.5-6.4-13-12.9-19.7-19.2c-9.8-9.2-19.9-18.1-30.1-26.7
		c-8.7-7.3-17.6-14.3-26.7-21.2c-12.2-9.3-24.8-18.1-37.4-26.8c-10.1-6.9-20.7-13.1-31.2-19.3c-8.8-5.2-17.7-10.1-26.6-15
		c-5.7-3.1-11.5-5.9-17.2-9c-3.6-2-7.4-3.6-11.1-5.6c-8.2-4.4-16.7-8.1-25.1-12.1c-8.5-4-17.3-7.5-25.9-11.4
		c-11.8-5.3-23.9-10-36-14.7c-11.7-4.5-23.5-8.7-35.3-12.9c-3.2-1.2-6.4-2.2-9.6-3.3c-6.3-2.1-12.7-3.9-18.9-6.2
		c-9.7-3.6-19.7-6.2-29.6-9.2c-3.1-1-6.1-2.1-9.3-2.9c-4.4-1.1-8.9-2.2-13.3-3.4c-6.2-1.8-12.5-3.6-18.8-5.1
		c-4.5-1-8.9-2.3-13.3-3.5c-7.3-2-14.5-4.1-21.8-5.9c-10.6-2.7-21.2-5.2-31.8-7.7c-9.1-2.1-18.2-4-27.3-5.9c-4-0.9-8.1-1.7-12.1-2.5
		c-7.4-1.5-14.8-2.9-22.2-4.3c-5.8-1.1-11.6-2.3-17.4-3.3c-8.3-1.4-16.6-2.8-24.9-4.1c-9.3-1.5-18.6-3-28-4.5
		c-4.7-0.7-9.3-1.7-14-2.1c-8.7-0.7-17.2-2.5-25.9-3.4c-10.4-1-20.8-2.7-31.2-3.9c-8.5-1-17-1.8-25.5-2.6c-5.1-0.5-10.3-1-15.4-1.5
		c-6-0.6-12-1.4-18.1-1.8c-8-0.5-15.9-0.8-23.8-1.9c-2.9-0.4-5.9-0.7-8.8-0.9c-1.5-0.1-2.9-0.3-4.4,0.2c-0.3,0.1-0.5,0.3-0.5,0.6
		c0.1,0.3,0.1,0.7,0.3,0.8c3.2,1.3,6.1,3.7,9.8,3.8c0.7,1,1.6,1.7,2.7,2.2c2.7,1.2,5.3,2.5,7.9,3.8c7.9,4,15.8,7.9,23.7,11.9
		c7.6,3.9,15.2,7.7,22.8,11.8c7.1,3.8,14.1,7.9,21.2,11.8c9.3,5.1,18.4,10.5,27.5,16c11.7,7.1,23.3,14.5,34.6,22.2
		c14.1,9.7,27.9,19.7,41.2,30.5c17,13.8,33.2,28.4,48,44.4c12.1,13,23.1,26.8,32.6,41.8c4.9,7.7,9.5,15.6,13.4,23.9
		c3.5,7.3,6.5,14.8,9.1,22.5c2.4,7.1,4.4,14.4,6,21.7c3.1,14.5,3.8,29.2,3,44.1c-1,19.7-6.1,38.4-13,56.7
		c-5.5,14.6-12.9,28.1-20.8,41.5c-5.6,9.4-12.1,18.2-18.6,26.9c-8,10.6-16.6,20.7-25.6,30.5c-5.5,6-11.1,11.9-16.9,17.6
		c-7.8,7.7-15.7,15.2-23.8,22.5c-8.8,7.8-17.7,15.5-27,22.9c-1.8,1.5-3.8,2.8-5.2,4.8C1068.8,1026.2,1068.8,1026.7,1069.2,1027.2z"
		/>
	<path id="XMLID_633_" class="st4" d="M820.8,1015.1c-1.1,0.3-2.3,0.6-3.5,0.8c-0.7,0.1-1.5,0.4-2.2,0.2c-2.8-0.8-5.6-0.4-8.4-0.6
		c-1.8-0.1-3.5-0.6-5.2-0.8c-2.9-0.4-5.8-1.2-8.7-1.2c-0.5,0-0.9-0.6-1.4-1c0.3,0,0.6-0.1,0.9,0c3.4,0.6,5.9-0.7,8.1-3.3
		c4.6-5.3,9.5-10.5,14.2-15.7c3-3.3,5.8-6.6,8.8-9.9c2.7-2.9,5.4-5.8,8.1-8.8c1.4-1.5,2.7-3.1,3.5-5.1c0.3-0.7-0.4-1.6-1.1-1.5
		c-0.7,0.1-1.5,0.2-2.1,0.6c-3.1,1.7-6.2,3.4-9.3,5.1c-4.7,2.5-9.3,5.1-14,7.6c-4.3,2.3-8.9,4-13.2,6.1c-5.7,2.8-11.6,5-17.6,7.1
		c-2.1,0.7-4,1.9-6.2,2.2c-2.3,0.3-4.6,1.2-6.9,1.7c-6.9,1.5-13.7,3.7-20.8,4.1c-1.2,0.1-2.4,0.1-3.4,0.7c-0.6,0.3-0.7,1.5-0.2,1.9
		c0.5,0.3,1,0.6,1.5,0.8c1.1,0.4,2.3-0.2,3.3,0.8c-5,1-9.5-0.3-14-1.9c-0.9-0.3-1.4-1-1.8-1.8c-0.6-1-1.5-1.3-2.6-1.4
		c-3.9-0.5-7.8-1-11.8-1.5c0.3-0.8,1-1,1.7-1.2c2.4-0.7,4.8-1.6,7.3-1.9c5.2-0.6,10-2.5,15-3.8c0.7-0.2,1.4-0.5,2.1-0.6
		c6.1-1.1,11.9-3.1,17.6-5.7c0.8-0.4,1.7-0.6,2.5-0.7c2.8-0.5,5.3-1.7,7.8-3c5.3-2.8,10.7-5.5,16.1-8.3c0.8-0.4,1.6-0.7,2.3-1.2
		c4.1-2.9,8.7-4.9,12.6-8.1c0.7-0.5,1.4-1.2,2.4-0.9c1.8,0,1.9,0,2.4-1.8c0.4-0.4,0.7-1,1.1-1.3c3.7-2.2,6.6-5.4,10.4-7.5
		c2.4-1.4,4.2-3.7,6.2-5.6c0.5-0.5,0.9-1.2,1.5-1.7c4.3-3.5,7.6-7.8,10.9-12.1c3.3-4.3,6.6-8.7,8.5-13.9c0.2-0.6,0.4-1.1,0.7-1.6
		c4.8-8.3,6-17.4,6.2-26.8c0.1-4.8-1.3-9.3-3.3-13.6c-2.2-4.9-5.5-9-10-12.1c-1.2-0.8-2.4-1.7-3.5-2.7c-4.4-3.9-9.7-6.1-15.2-7.9
		c-0.8-0.3-1.7-0.4-2.5-0.8c-7.8-3.7-16.4-5-24.7-6.7c-7-1.5-14.2-2.7-21.5-2.9c-3.1-0.1-6.2-0.2-9.2-1c-2-0.5-4.1-0.4-6.2-0.5
		c-1.9-0.2-3.9,0.1-5.7-0.7c1-1.1,2.3-1.2,3.6-1.3c3.2-0.3,6.4-0.6,9.6-0.9c0.4,0,0.8-0.2,1-0.7c0.2-0.7-0.3-1.1-0.8-1.4
		c-1.2-0.6-2.6-0.3-3.9-0.4c-1.7,0-3.2-0.2-4.3-1.6c0.6-0.2,1.1-0.5,1.7-0.5c9.1-0.7,18.2-1.3,27.4-2c3.7-0.3,7.3-0.7,11-1.2
		c8.6-1.1,17.3-2.2,25.8-3.6c4.2-0.7,8.4-1.8,12.3-3.6c0.5-0.2,1.1-0.6,1.6-0.7c4.7-0.8,8.1-4,11.8-6.6c0.8-0.6,1.6-1.3,2.2-2.1
		c4.2-5.8,7.4-12.1,8.5-19.3c0.2-1.3,0.2-2.7,0.1-4c-0.8-6.7-3-13-6.9-18.4c-3.2-4.5-7.3-8.1-11.9-11.1c-1.8-1.2-3.9-1.3-5.7-2.3
		c-3.1-1.8-6.6-2.6-9.9-3.7c-2.1-0.7-4.3-1.1-6.5-1.2c-2.1-0.1-4.1-0.1-6.2-0.4c-7.3-0.9-14.4,0-21.6,0.9c-2,0.2-4,1.1-6,1.6
		c-4,1-7.6,3.2-11.7,4c-0.6,0.1-1.1,0.5-1.6,0.8c-3,2.4-6.5,4.1-9.5,6.5c-3.4,2.6-7,4.8-10.6,7.2c-0.4,0.2-0.8,0.3-1.3,0.4
		c-0.9,0.2-1.8-0.8-1.5-1.6c0.2-0.5,0.4-1.1,0.8-1.6c6-7.6,12.9-14.1,21.6-18.7c1-0.5,2.1-1.1,3.1-1.8c2.1-1.5,4.3-2.5,6.7-3.2
		c2.5-0.8,4.9-2,7.3-3.1c0.8-0.4,1.6-0.9,2.4-1.1c4.7-1.1,9.4-2.7,14.2-3.2c7-0.6,14.1-1.3,21.2-0.6c3.4,0.3,6.7,0.9,10,1.7
		c6,1.4,11.9,3.3,17.7,5.6c7,2.8,13,6.9,18.8,11.3c3,2.3,5.8,5,8.7,7.5c3.7,3.2,6.6,7.2,9.4,11.1c2.9,4.1,5.4,8.4,8.4,12.4
		c2.7,3.6,4.4,7.7,6.2,11.7c2.3,5.3,4.3,10.7,5.9,16.2c0.4,1.3,0.7,2.6,0.8,3.9c0.5,5.7,1.4,11.4,2.5,17c0.3,1.6,0.5,3.2,0.5,4.8
		c0,6.8,0,13.6,0,20.4c0,2.2-0.3,4.4-0.8,6.6c-0.5,2-0.9,4.1-1.1,6.1c-0.5,6.7-2.7,13-4.6,19.3c-1,3.4-2,6.8-3.2,10.1
		c-1.1,3.1-2.3,6.1-3.8,8.9c-1.7,3.3-2.7,6.8-4.5,10.1c-2.9,5.3-6,10.5-9.2,15.6c-3.8,6-8.1,11.6-12.4,17.2
		c-0.1,0.2-0.5,0.2-0.8,0.3c-0.7,0.3-1.1,0.8-1.1,1.6c0.3,1.4-0.7,2.2-1.4,3c-2.8,3.7-5.9,7.3-8.6,11.1c-2.5,3.5-5.4,6.5-8.4,9.5
		c-0.4,0.4-0.9,0.7-1.4,1c-0.9,0.3-1.7,0.7-1.8,1.7c0.1,0.8-0.5,1.4-1,1.9c-7.5,7.3-15,14.5-23.2,21
		C822.7,1012.6,821.8,1013.9,820.8,1015.1z"/>
	<path id="XMLID_632_" class="st3" d="M630.9,1107.5c4.9-1.1,9.8-2.2,14.7-3.3c1.7-0.4,3.4-0.9,5.2-1.2c7.3-1.6,14.7-3.2,22-4.8
		c0.1,0,0.3,0,0.4,0c5.7-1.6,11.6-1.9,17.4-3c3.5-0.7,7-1,10.5-1.4c5.5-0.7,11.1-1.4,16.7-2.1c1-0.1,2-0.3,3.1-0.4
		c6.3-0.4,12.7-0.5,19-1.1c14.6-1.5,29.2-0.8,43.8-0.6c7.2,0.1,14.4,0.4,21.6,1.4c0.6,0.1,1.2,0.1,1.8,0.1c6.6,0.1,13.2,1,19.8,2.1
		c3.8,0.6,7.6,0.6,11.4,1.5c7.5,1.6,15.1,2.2,22.6,3.9c5.2,1.2,10.4,2.3,15.5,3.4c8.5,1.9,16.8,4.3,25.3,6.4
		c6.6,1.6,13.2,3.1,19.9,3.9c2.6,0.3,5.3,0.5,7.9,1c3.5,0.7,7.1,0.5,10.6,0.9c9.4,1.1,18.9,0.8,28.3,0.6c5.1-0.1,10.3-0.8,15.4-1.3
		c2.9-0.3,5.8-0.9,8.8-1.1c4.7-0.3,9.4-1.2,14-2.2c9.9-2.3,19.8-4.7,29.4-7.9c6-2,12.1-3.8,18.2-5.4c5-1.3,10.1-2.2,15.1-3.3
		c0.4-0.1,0.9-0.1,1.3-0.3c8.8-2.7,17.8-3.9,26.8-5.5c7.1-1.2,14.3-2,21.4-2.9c3.8-0.5,7.6-1,11.4-1.5c0.6-0.1,1.2-0.2,1.8-0.2
		c5-0.3,10.1-0.3,15-1.1c5.9-1,11.8-0.2,17.6-1.4c1.1-0.2,2.4-0.1,3.5-0.1c21.1,0,42.2,0,63.3,0c6.9,0.9,13.8,0.4,20.7,1.5
		c0.1,0,0.3,0.1,0.4,0c5-0.2,10,0.9,15,0.9c5.6,0.1,11.2,0.8,16.7,1.6c3.7,0.5,7.3,0.9,11,1.1c5.2,0.2,10.3,0.9,15.4,1.7
		c3.8,0.6,7.6,0.7,11.4,1.1c4.8,0.6,9.6,1.4,14.4,2.1c6.3,0.8,12.5,2.2,18.8,2.9c5.6,0.7,11,2,16.6,2.6c5.6,0.5,11,2.2,16.6,2.7
		c7.6,0.7,15.1,2.1,22.9,2.3c5.4,0.1,10.9,0.8,16.3,0.5c6.2-0.4,12.4-0.4,18.5-1.4c5.1-0.8,10.2-1.4,15.3-1.9
		c1.8-0.2,3.5-0.6,5.2-0.9c5.8-1.1,11.6-2.2,17.3-3.5c3.5-0.8,6.8-2,10.2-2.9c5.1-1.5,10.3-2.8,15.2-4.8c1.4-0.6,2.6-1.3,3.7-2.3
		c5.6-4.8,11.2-9.6,16.7-14.4c0.3-0.3,0.7-0.6,1-0.9c4.5-4.1,8.8-8.3,13.4-12.2c5.2-4.4,9.9-9.3,15.4-13.3c0.6-0.4,1.1-0.9,1.7-1.4
		c4.2-3.9,8.3-8,12.8-11.6c8.3-6.8,15.8-14.6,24.3-21.2c0.7-0.5,1.3-1.2,1.9-1.8c5-5,10.5-9.5,15.9-14.1c2.8-2.4,5.6-4.8,8.3-7.3
		c4.2-4,8.6-7.7,13-11.3c1.3-1,2.4-2.2,3.1-3.7c1.3,0.1,2,1.2,2.9,2c2.1,1.9,4.1,3.8,6.1,5.7c0.2,0.2,0.5,0.4,0.7,0.6
		c1.5,1.6,1.4,3.1-0.2,4.6c-3.6,3.2-7.3,6.5-10.9,9.7c-4.6,4-9.2,7.9-13.7,11.9c-6.3,5.5-12.6,11.1-18.9,16.7
		c-8.7,7.7-17.4,15.5-26.1,23.2c-16.5,14.6-33,29.1-49.4,43.6c-2.4,2.1-4.9,4.3-7.3,6.5c-2.3,2.1-5,3.5-7.9,4.6
		c-11.3,4.1-22.9,6.8-34.5,9.4c-9.9,2.2-20.1,3.6-30.3,4.1c-5.6,0.3-11.2,1-16.8,1.1c-8,0.1-15.9-0.9-23.9-1.3
		c-9-0.5-17.9-1.9-26.7-3.7c-8.3-1.6-16.6-2.5-24.9-4.1c-3.8-0.7-7.6-0.8-11.4-1.5c-5.8-1.1-11.7-1.7-17.5-2.3
		c-5.9-0.6-11.7-1.5-17.6-2.3c-9.5-1.2-19-2.3-28.6-2.7c-5.2-0.2-10.3-0.9-15.4-1.3c-5.3-0.4-10.6-0.8-15.9-1
		c-10.3-0.5-20.6-0.9-31-1.1c-9.3-0.2-18.6-0.3-27.9,0.2c-8.3,0.4-16.5,0.7-24.8,0.9c-6.4,0.2-12.7,0.7-19,1.4
		c-6.5,0.7-12.9,1.1-19.4,1.6c-2.4,0.2-4.7,0.4-7,1c-1.4,0.3-2.9,0.5-4.4,0.7c-4.5,0.6-9.1,1.1-13.5,2.2c-0.6,0.1-1.2,0.3-1.7,0.3
		c-6.7,0.4-13.1,2.4-19.6,3.6c-8.1,1.5-16.1,3.6-24.1,5.9c-4.8,1.4-9.6,2.9-14.5,4.2c-3.7,1-7.4,2.2-11,3.4
		c-4.8,1.5-9.7,2.4-14.6,3.7c-4.8,1.3-9.8,2.1-14.8,2.8c-13.2,1.9-26.4,3.4-39.7,3.2c-9.3-0.1-18.6-0.9-27.8-2
		c-7.3-0.9-14.6-2.2-21.8-3.8c-5.2-1.1-10.4-1.8-15.4-3.8c-2.9-1.1-5.9-1.7-9-2.4c-5.6-1.3-11.2-2.5-16.9-3.6
		c-6.9-1.4-13.9-2.8-20.8-4.1c-2-0.4-4.1-0.8-6.1-1c-8.5-0.9-17-2.4-25.5-3c-5.9-0.4-11.8-1.1-17.6-1.6c-3.2-0.3-6.5-0.5-9.7-0.6
		c-13.4-0.3-26.9-0.3-40.3,0c-2.7,0.1-5.3,0.3-8,0.5c-5,0.4-10,1.1-15,1.4c-11.2,0.7-22.3,2.3-33.4,3.9c-6.6,1-13.1,2.4-19.6,3.7
		c-6.5,1.3-13,2.6-19.5,4c-3.5,0.7-6.9,1.7-10.3,2.7c-1.3,0.4-2.6,0.6-3.8-0.3c-4.3-3.1-9-5.6-12.9-9.2
		C631.1,1108.4,631,1107.9,630.9,1107.5z"/>
	<path id="XMLID_631_" class="st4" d="M1378.6,1261.9c0,8.3,0,16.5,0,24.8c0,4.1-0.5,4.6-4.6,4.6c-3.8,0-7.7,0-11.5,0
		c-1,0-2.1,0-3.1,0.1c-1.7,0.2-2.4,0.8-2.5,2.5c-0.1,1,0,2.1,0,3.1c0,5.9,0,11.8,0,17.7c0,1,0,2.1-0.1,3.1c-0.2,1.4-0.9,2.2-2.3,2.3
		c-0.7,0.1-1.5,0-2.2,0c-13.6,0-27.2,0-40.7,0.1c-1.7,0-3.2-0.1-4.5-1.4c-1.5-1.4-2.3-2.9-2.3-5c0.1-5.5,0-10.9,0.1-16.4
		c0-6.1,0-6.1-6.1-6.1c-3.7,0-7.4,0-11.1,0.1c-2.8,0.1-4.3-0.9-4.5-4.2c-0.1-1.8,0-3.5,0-5.3c0-14.9,0-29.8-0.1-44.7
		c0-0.7,0-1.5,0.1-2.2c0.2-1.9,1.2-2.9,3.2-3c4-0.1,8,0,12,0c1.3,0,2.7,0,4-0.1c1.4-0.1,2.2-0.9,2.4-2.2c0.1-0.9,0.1-1.8,0.1-2.6
		c0-6.1-0.1-12.1-0.1-18.2c0-0.7,0-1.5,0-2.2c0.2-2.5,1.1-3.4,3.6-3.5c1.5-0.1,3,0,4.4,0c12.7,0,25.4,0,38.1,0c1,0,2.1-0.1,3.1,0
		c1.7,0.1,2.6,1,2.9,2.8c0.1,0.7,0.1,1.5,0.1,2.2c0,6.2,0,12.4-0.1,18.6c0,0.9-0.1,1.8,0,2.7c0.2,1.6,0.9,2.4,2.6,2.4
		c4.1,0.1,8.3,0.1,12.4,0.1c1.2,0,2.4-0.1,3.5,0c1.9,0.1,2.9,1.1,3.2,3c0.1,0.7,0.1,1.5,0.1,2.2
		C1378.6,1245.4,1378.6,1253.6,1378.6,1261.9C1378.6,1261.9,1378.6,1261.9,1378.6,1261.9z"/>
	<path id="XMLID_628_" class="st2" d="M1218.4,1224.2c2.8,0,6.4,0,9.9,0c1.2,0,2.4,0.2,3.4,0.8c0.9,0.6,1.1,2,0.2,2.6
		c-0.7,0.5-1.5,0.9-2.3,1.2c-1.5,0.6-3,1.1-4.6,1.6c-4.3,1.2-8.3,3-12.2,5.1c-1,0.6-2.2,0.8-3.3,1.3c-7.7,3.5-15,7.6-21.9,12.5
		c-6.2,4.3-12.2,8.8-17.3,14.5c-4.9,5.5-9.6,11.2-13.4,17.6c-2.3,3.8-5.1,7.2-8,10.6c-5.2,6.2-11.6,11.1-18.8,14.5
		c-7.7,3.7-15.8,6.5-24.7,6.2c-4.3-0.1-8.6,0-12.8-0.2c-7.5-0.4-14.5-2.5-21.2-5.8c-4.5-2.3-7.5-6.1-9.3-10.9
		c-0.3-0.7-0.4-1.4-0.5-2.1c-0.9-7.4,1.1-14.1,5.2-20.1c4.7-6.9,10.6-12.5,17.4-17.4c6.4-4.6,13.1-8.6,20.2-11.7
		c5.8-2.5,11.7-5,17.9-6.2c1.7-0.3,3.3-1.2,5-1.6c5.8-1.3,11.4-2.9,17.3-3.7c2-0.3,4-0.8,6.1-1.3c3-0.7,6.1-1.3,9.2-1.4
		c0.9,0,1.8-0.1,2.6-0.3c7.7-2.1,15.8-2.2,23.5-4c2.6-0.6,5.3-0.7,7.9-0.8C1202.1,1225,1209.8,1223.5,1218.4,1224.2z M1090,1292.1
		c0.9,0,1.8,0.1,2.7,0c6.4-0.5,12-2.7,16.7-7.2c2.7-2.5,5.1-5.3,7-8.5c2.9-4.9,7-8.7,11.5-12.1c3.6-2.6,7.3-4.9,11-7.4
		c0.5-0.3,1.2-0.5,0.8-1.3c-0.3-0.6-1-0.5-1.6-0.4c-0.9,0.1-1.7,0.4-2.6,0.6c-6.4,1.8-12.7,3.9-18.9,6.2c-6.7,2.4-13.3,4.8-19.4,8.5
		c-5.1,3.1-9.6,6.8-13.2,11.6c-1.3,1.7-2,3.6-1.9,5.8c0.1,2.1,0.9,3.2,2.9,3.9C1086.7,1292.3,1088.3,1292.1,1090,1292.1z"/>
	<path id="XMLID_625_" class="st2" d="M894.8,1379.2c0.4-9.7,2.7-18.9,7.8-27.3c4.6-7.7,10.1-14.5,16.6-20.6
		c7-6.5,14.7-11.8,23.2-16c6.7-3.3,13.7-6.1,20.8-8.6c6.3-2.2,12.5-4.4,18.9-6.3c5.4-1.6,10.7-3.1,16.3-4c3.5-0.6,6.9-1.5,10.4-2.1
		c2.5-0.5,4.9-0.8,7.4-1.2c0.6-0.1,1.2-0.1,1.8,0c1.1,0.1,1.8,1.4,1.2,2.3c-0.6,0.8-1.3,1.6-2,2.3c-2.9,2.9-5.8,5.8-8.8,8.7
		c-6.9,6.8-12.6,14.5-18.2,22.2c-6.8,9.2-11.4,19.6-15.6,30.1c-0.5,1.2-0.7,2.5-1.1,3.8c-1.8,6.3-4.4,12.2-7.9,17.7
		c-4.5,6.9-10.6,12.2-17.7,16.3c-5.5,3.1-11.5,4.6-17.6,5.7c-3,0.6-6.1,1-9.2,1c-3.6,0.1-7.1-0.5-10.5-1.4
		c-8.6-2.1-15.9-10.5-15.6-19.6C894.8,1381.3,894.8,1380.2,894.8,1379.2z M915.6,1367.7c0,0.7,0,1.3,0,1.9c-0.2,4.1,4.2,8.8,9.6,8.3
		c4.1-0.4,8.1-1.7,11.6-4c4.9-3.2,7.4-7.8,8.6-13.4c1.1-5.4,3.1-10.4,5.7-15.3c2.3-4.3,5.1-8.3,8.4-11.9c0.6-0.7,1.2-1.5,0.6-2.3
		c-0.6-0.8-1.6-0.5-2.5-0.3c-0.6,0.1-1.1,0.3-1.7,0.5c-4.8,1.8-9.7,3.4-14.3,5.9c-5.2,2.7-10.5,5.2-15,9.3
		c-4.6,4.2-7.9,9.1-10.1,14.9C916,1363.3,915.5,1365.5,915.6,1367.7z"/>
	<path id="XMLID_622_" class="st2" d="M297.4,1180.4c3.7,0,7.4,0,11.1,0c7.2,0,14.4,0.5,21.6,1.4c4.4,0.6,8.8,0.8,13.2,1.2
		c0.7,0.1,1.5,0.1,2.2,0.3c1,0.2,1.5,1.6,0.9,2.5c-0.7,1-1.5,1.8-2.6,2.4c-8.6,4.8-16.8,10.4-25.3,15.3c-8.4,4.9-17.1,9.3-25.6,13.9
		c-8.8,4.7-18.1,8.6-27.3,12.6c-7,3-14.2,5.7-21.5,8.1c-9,3-18.2,5.1-27.8,4.7c-5.2-0.2-10.3-1.1-14.9-3.7
		c-4.8-2.7-8.2-6.6-10.3-11.7c-2.5-6-2.3-12,0-18.1c1.7-4.4,4.9-7.3,8.4-10c5.2-4,11.2-6.4,17.4-8.3c5.1-1.6,10.3-2.4,15.4-4
		c1.5-0.5,3.2-0.6,4.8-0.9c4.5-0.8,9-1.7,13.5-2.5c3.8-0.6,7.6-1.1,11.4-1.6C273.8,1180.6,285.6,1180,297.4,1180.4z M230.4,1215.9
		c2.4-0.5,5.3-1,8-2.3c6.7-3.3,13.1-7.2,19.3-11.4c1.8-1.2,3.6-2.5,5.4-3.8c0.3-0.2,0.5-0.8,0.5-1.1c0-0.7-0.6-1-1.2-1.1
		c-0.6-0.1-1.2-0.2-1.7-0.1c-2.9,0.6-5.9,0.3-8.8,0.5c-1.8,0.1-3.5,0.3-5.2,0.6c-5.1,0.9-10,2.5-14.8,4.2c-2.1,0.7-4,1.9-5.7,3.2
		c-2.5,1.9-3.4,5.2-2.3,7.9C224.6,1214.7,227,1216,230.4,1215.9z"/>
	<path id="XMLID_619_" class="st2" d="M458.7,1112.1c3.5,0,7.1,0,10.6,0c8-0.1,15.9,0.6,23.8,1.5c4.7,0.5,9.4,0.8,14.1,1.2
		c3.8,0.3,7.6,0.9,11.3,1.9c0.7,0.2,1.3,0.6,1.9,1c0.5,0.3,0.3,1.3-0.2,1.5c-1.6,0.7-3.4,1.1-5.2,1c-5.6-0.2-10.8,1.3-16.1,2.7
		c-6.1,1.6-12.1,3.8-17.9,6.4c-8.4,3.8-15.8,9.1-23,14.7c-3.5,2.7-7.2,5.2-11,7.4c-5.1,3-10.2,5.9-15.6,8.3
		c-6.2,2.8-12.6,4.9-19.2,6.8c-8.7,2.5-17.4,4.5-26.5,4.3c-5.2-0.1-10.3-0.8-15-3.1c-11.2-5.3-16.2-14.8-14.5-26.2
		c0.8-5.6,4.2-9.9,8.8-13.3c5.1-3.7,10.7-6.1,16.8-7.6c4.4-1.1,8.9-2.2,13.4-3c7.1-1.1,14.2-2.5,21.4-3.6c4.5-0.7,9.1-0.8,13.7-1.3
		C439.8,1111.9,449.2,1112.1,458.7,1112.1z M388.9,1148.4c3.7-0.7,8.2-1.4,12.4-3.1c4.2-1.7,8.3-3.8,12.5-5.6
		c7.7-3.4,14.7-8.1,22.3-11.8c0.3-0.1,0.5-0.3,0.7-0.5c0.5-0.4,0.8-0.9,0.7-1.5c-0.1-0.6-0.6-1-1.2-1c-0.6,0-1.2-0.1-1.8,0
		c-4.8,0.8-9.7,0.9-14.4,2.2c-0.7,0.2-1.4,0.4-2.2,0.5c-7.4,0.6-14.4,2.8-21.5,4.8c-3.6,1-7,2.3-10.3,3.9c-1.8,0.8-3.4,1.8-4.7,3.3
		c-2.3,2.7-1.6,6.2,1.5,7.7C384.5,1147.9,386.2,1148.5,388.9,1148.4z"/>
	<path id="XMLID_618_" class="st3" d="M1513.1,1398.7c0.1,1.9-0.5,2.7-1.9,3c-0.7,0.2-1.5,0.2-2.2,0.2c-2.2-0.1-3.1-1-3.3-3.3
		c-0.4-7.2-0.8-14.4-1.2-21.7c-0.1-1.2,0.1-2.4-0.5-3.5c-0.2-0.3-0.6-0.7-1-0.7c-0.3-0.1-0.9,0.2-1.1,0.4c-0.9,1.1-1.1,2.4-1.3,3.7
		c-1.2,7-2.5,13.9-3.7,20.9c-0.1,0.7-0.3,1.4-0.6,2.1c-0.5,1.2-1.5,1.8-2.7,2c-1.5,0.2-2.6-0.6-2.9-2c-0.4-2-0.9-4-1.2-6.1
		c-1.1-6.8-2.2-13.7-3.3-20.5c-0.1-0.6-0.2-1.2-0.4-1.7c-0.1-0.2-0.4-0.3-0.6-0.5c-0.5-0.3-0.9,0.1-1.1,0.3c-0.8,0.9-1,2.1-1.1,3.3
		c-0.3,5.2-0.6,10.3-0.9,15.5c-0.2,2.8-0.2,5.6-0.4,8.4c-0.1,2.3-0.9,3.1-3.3,3.3c-0.7,0.1-1.5,0-2.2-0.1c-1.3-0.2-2.1-1-2.1-2.4
		c0.1-2.7,0.3-5.3,0.5-8c1.1-12.5,2.2-25,3.3-37.5c0.4-4.1,0.7-8.2,1-12.3c0.2-2.4,1-3.1,3.3-3.2c0.6,0,1.2,0,1.8,0.1
		c1.7,0.3,2.3,0.8,2.6,2.5c1.6,9.9,3.2,19.8,4.8,29.7c0.2,1.4,0.3,2.9,1.2,4.2c0.4,0.6,1.5,0.6,1.9,0.1c0.6-0.7,0.7-1.6,0.9-2.5
		c1.6-8.7,3.2-17.4,4.7-26.1c0.3-1.6,0.3-3.2,0.6-4.8c0.6-2.9,4.1-4.3,6.5-2.7c0.8,0.5,1,1.4,1.1,2.3c0.3,4.1,0.7,8.2,1,12.4
		c0.7,9,1.4,17.9,2.2,26.9C1512,1386.8,1511.9,1393.1,1513.1,1398.7z"/>
	<path id="XMLID_617_" class="st4" d="M1212.5,1393.3c0.6-6.2,1.2-12.3,1.8-18.5c0.5-5.9,0.9-11.8,1.4-17.6
		c0.4-5.1,0.9-10.3,1.4-15.4c0.2-2.6,1.1-3.2,3.8-3c2.5,0.2,2.9,0.8,3.3,3.3c1.3,7.7,2.6,15.4,3.9,23.1c0.5,2.8,0.8,5.5,1.3,8.3
		c0.2,1.1,0.2,2.4,1.7,2.8c1,0.2,1.8-0.8,2.2-2.8c1.3-7.4,2.6-14.8,3.8-22.2c0.5-3,1.1-6.1,1.7-9.1c0.5-2.4,1.6-3.3,3.9-3.3
		c2,0,3,0.8,3.1,2.8c0.5,6,1,12.1,1.5,18.1c0.7,8.4,1.4,16.8,2.1,25.1c0.4,4.7,0.4,9.4,1.3,14.1c0.3,1.6-0.5,2.5-2.1,2.8
		c-0.4,0.1-0.9,0.1-1.3,0.1c-2.2,0-3.2-0.9-3.3-3.2c-0.5-7.5-0.9-15-1.4-22.5c-0.1-1.2-0.2-2.3-0.4-3.5c-0.1-0.6-0.5-1-1.2-1.2
		c-0.9-0.2-1.4,0.5-1.6,1.1c-0.4,1.3-0.7,2.6-1,3.9c-1.3,7.1-2.6,14.2-3.9,21.3c-0.2,1-0.5,2-0.9,2.9c-0.5,1-1.9,1.4-3.1,1.1
		c-1-0.2-1.5-0.9-1.6-1.9c-0.8-4.5-1.6-9-2.3-13.5c-0.8-4.8-1.5-9.6-2.3-14.4c0-0.3-0.1-0.6-0.3-0.8c-0.3-0.3-0.7-0.7-1-0.7
		c-0.4,0-0.8,0.3-1.1,0.6c-0.8,1-1,2.1-1,3.3c-0.3,5.3-0.6,10.6-0.9,15.9c-0.2,2.9-0.3,5.9-0.5,8.8c-0.1,1.6-0.8,2.4-2.5,2.6
		c-0.9,0.1-1.8,0.1-2.6,0c-1.2-0.1-1.9-0.9-1.8-2.1C1212.3,1397.4,1212.5,1395.4,1212.5,1393.3
		C1212.6,1393.3,1212.6,1393.3,1212.5,1393.3z"/>
	<path id="XMLID_616_" class="st3" d="M1641.5,1370.2c0,9.2,0,18.3,0,27.5c0,0.7,0.1,1.5,0,2.2c-0.1,1-0.7,1.7-1.6,1.8
		c-1,0.2-2.1,0.2-3.1,0.2c-1,0-1.6-0.7-1.9-1.6c-0.5-1.4-0.8-2.8-1.3-4.2c-2.9-9.3-6.1-18.5-8.6-27.9c-0.6-2.1-1.4-4.2-2.2-6.3
		c-0.2-0.5-0.6-0.8-1-0.7c-0.3,0.1-0.6,0.6-0.6,1c-0.1,0.9-0.1,1.8-0.1,2.7c0.1,11.1,0.1,22.1,0.2,33.2c0,3.5-0.8,4.2-4.1,3.9
		c-2.1-0.2-2.8-0.9-2.8-3.1c0-8,0-15.9,0-23.9c0-10.8,0.1-21.5-0.1-32.3c-0.1-3.7,1.5-4.2,4.6-4c1.2,0.1,1.9,0.7,2.3,1.7
		c0.2,0.6,0.4,1.1,0.6,1.7c1.1,4.4,2.7,8.7,3.9,13.1c2.2,7.8,4.8,15.5,7.3,23.2c0.1,0.4,0.5,0.8,0.8,1c0.1,0.1,0.6,0,0.8-0.2
		c0.7-1.2,0.5-2.6,0.5-3.9c0-5.3-0.1-10.6-0.2-15.9c0-5.6,0.1-11.2-0.1-16.8c-0.1-4.2,1.8-4.1,4.6-3.8c1.4,0.2,2.1,0.9,2.2,2.3
		c0,0.6,0,1.2,0,1.8C1641.5,1351.9,1641.5,1361.1,1641.5,1370.2z"/>
	<path id="XMLID_615_" class="st4" d="M824.8,776.4c0.6,0,1.3-0.1,2,0.2c5.4,1.7,10.3,4.1,13.1,9.5c1.1,2.1,1.9,4.3,2.7,6.5
		c0.9,2.8,0.8,5.5,0,8.3c-1.2,4-2.9,7.7-6.1,10.6c-4.1,3.7-8.8,5.8-14.5,5c-8.9-1.3-15-8.5-15.7-16.6c-0.1-1.3,0-2.7-0.3-4
		c-1-5.7,1.6-10,5.1-14c3.2-3.7,7.4-5.1,12.1-5.4C823.7,776.4,824.1,776.4,824.8,776.4z"/>
	<path id="XMLID_614_" class="st3" d="M646,907.1c0,4.6,0,9.1,0,13.7c0,0.9,0,1.8-0.1,2.6c-0.1,1-0.8,1.7-1.7,1.8
		c-3.2,0.1-6.5,0.1-9.7,0.1c-1.1,0-1.9-0.8-2.5-1.7c-1.4-2.1-2.8-4.1-4.2-6.2c-1.6-2.5-3.2-5-4.7-7.5c-0.5-0.8-1.1-1.4-1.9-1.8
		c-0.6-0.3-1.2-0.1-1.3,0.6c-0.1,2.1-0.1,4.1-0.1,6.2c0,2.5,0.1,5,0,7.5c0,1.8-0.9,2.8-2.7,2.9c-2.6,0.1-5.3,0.1-7.9-0.1
		c-1.4-0.1-2-0.8-2.1-2.4c-0.1-0.6,0-1.2,0-1.8c0-9.4,0-18.9,0-28.3c0-0.4,0-0.9,0-1.3c0.1-2.7,0.8-3.5,3.4-3.6c2.4-0.1,4.7,0,7.1,0
		c1.8,0,3,0.8,4,2.3c2.5,4,5.1,7.9,7.7,11.9c0.6,1,1.4,1.9,2.2,2.8c0.2,0.3,0.9,0.4,1.2,0.3c0.3-0.1,0.7-0.6,0.8-0.9
		c0.1-1.3,0.1-2.6,0.1-4c0-2.8-0.1-5.6-0.1-8.4c0-3,1-3.9,4-4c1.8-0.1,3.5,0,5.3,0.1c2.3,0.1,3.1,0.9,3.2,3.3c0.1,3.5,0,7.1,0,10.6
		C646,903.5,646,905.3,646,907.1C646,907.1,646,907.1,646,907.1z"/>
	<path id="XMLID_613_" class="st3" d="M1341.4,1370c0-9.1,0-18.3,0-27.4c0-0.4-0.1-0.9,0-1.3c0.1-1.6,0.8-2.4,2.4-2.6
		c0.4-0.1,0.9-0.1,1.3-0.1c4.1-0.1,4.7,1,4.6,4.5c-0.3,6-0.2,12.1-0.2,18.1c0,0.6,0,1.2,0,1.8c0.1,0.7,0.2,1.6,1,1.8
		c1.2,0.3,1.4-0.7,1.7-1.5c2.7-7,5.5-14,8.2-20.9c1.4-3.6,3.8-4.7,7.7-3.4c1,0.3,1.4,1.2,1,2.1c-1.1,2.6-2.3,5.1-3.4,7.7
		c-2.7,5.9-5.3,11.8-8,17.7c-0.7,1.6-0.9,3-0.3,4.7c3.3,7.9,6.5,15.8,9.8,23.7c0.7,1.6,1.3,3.3,2,4.9c0.3,0.9-0.2,1.8-1.1,2
		c-1.9,0.6-3.8,0.4-5.7,0.2c-0.8-0.1-1.4-0.6-1.7-1.3c-0.7-1.5-1.3-3-1.9-4.5c-2.2-6.1-4.3-12.2-6.4-18.3c-0.2-0.5-0.4-1.1-0.7-1.6
		c-0.2-0.3-0.6-0.7-1.1-0.4c-0.2,0.1-0.5,0.3-0.7,0.5c-0.6,1.1-0.4,2.3-0.4,3.5c0,6.2,0,12.4,0.2,18.6c0.1,2.4-0.7,3.5-3.3,3.6
		c-0.7,0-1.5,0-2.2,0c-2.1-0.2-2.8-1-2.8-3.2c0-4,0-8,0-11.9C1341.4,1381.2,1341.4,1375.6,1341.4,1370
		C1341.4,1370,1341.4,1370,1341.4,1370z"/>
	<path id="XMLID_612_" class="st4" d="M507.8,906.7c0,4.7,0,9.4,0,14.2c0,0.7,0,1.5-0.1,2.2c-0.1,1.2-0.8,2.1-1.9,2.1
		c-3.1,0.1-6.2,0.1-9.3,0c-1.4-0.1-2.3-1.1-3.1-2.3c-2.7-4.4-5.5-8.7-8.3-13c-0.6-0.9-1-1.8-1.9-2.4c-0.5-0.3-1.4,0-1.4,0.5
		c-0.1,0.9-0.3,1.7-0.3,2.6c0,3.4,0.1,6.8,0.1,10.2c0,0.9,0,1.8-0.1,2.6c-0.2,1.1-1,1.9-2.1,1.9c-2.5,0.1-5,0.1-7.5,0
		c-1.4-0.1-2.1-0.9-2.2-2.3c-0.1-0.7-0.1-1.5-0.1-2.2c0-9.3,0-18.6,0-27.9c0-0.7-0.1-1.5,0-2.2c0.2-2,1.1-2.9,3.1-3
		c1.9-0.1,3.8,0.1,5.7,0c2.5-0.1,4.2,1,5.5,3c3,4.7,6.4,9.2,9.1,14.1c0.2,0.4,0.5,0.8,0.8,1.1c0.2,0.2,0.5,0.3,0.8,0.2
		c0.2-0.1,0.6-0.3,0.6-0.6c0.2-1.2,0.3-2.3,0.3-3.5c0-3.2,0-6.5,0-9.7c0-0.9,0-1.8,0.1-2.6c0.2-1.1,1-1.9,2.1-1.9
		c2.5-0.1,5-0.1,7.5,0c1.5,0.1,2.4,1,2.6,2.6c0.1,0.9,0.1,1.8,0.1,2.6C507.8,897.6,507.8,902.2,507.8,906.7
		C507.8,906.7,507.8,906.7,507.8,906.7z"/>
	<path id="XMLID_609_" class="st2" d="M675.5,771.2c0,4.2,0.1,7.9-0.6,11.5c-0.4,2.1-0.2,4.4-0.3,6.6c-0.3,3.4-0.7,6.7-1.1,10.1
		c-0.1,0.7-0.3,1.4-0.6,2.1c-0.8,2.5-2.5,3-4.8,1.7c-0.4-0.2-0.7-0.6-1.1-0.8c-3.6-1.1-4.9-3.3-3.6-7c0.4-1.2-0.3-2.3-1.3-3.1
		c-0.6-0.4-1.2-0.9-1.9-1.1c-2.3-0.9-4.7-1.7-7.1-2.5c-0.8-0.3-1.7-0.5-2.6-0.6c-1.6-0.3-2.9,0.2-3.9,1.5c-0.4,0.6-0.8,1.2-1.2,1.8
		c-1.2,1.5-2.6,2.3-4.6,1.5c-1.6-0.6-3.4-1.1-5-1.8c-1.1-0.4-1.4-1.6-0.7-2.6c5.5-8.1,10.7-16.6,17.1-24.1c1.9-2.2,3.8-4.5,5.7-6.8
		c1.2-1.4,2.5-1.7,4.3-1.3c3.5,0.7,6.7,2.3,10,3.4c2,0.7,3.3,2.5,3.3,4.8C675.5,767,675.5,769.4,675.5,771.2z M664.5,776.9
		c0,0-0.1,0-0.1,0c0-0.6,0-1.2,0-1.8c0-1.2,0-2.4-0.1-3.5c-0.1-0.9-1.3-1.4-2-0.9c-0.2,0.2-0.5,0.3-0.7,0.6
		c-1.6,2.5-3.7,4.6-5.7,6.7c-0.7,0.8-0.6,1.8,0.3,2.3c2,1.3,4.2,2.2,6.5,2.8c1,0.2,1.8-0.4,1.9-1.4
		C664.6,780.1,664.5,778.5,664.5,776.9z"/>
	<path id="XMLID_608_" class="st2" d="M616.2,753.4c-0.2,5.4-0.7,10.3-1.6,15c-0.2,1.1-0.1,2.4-0.2,3.5c-0.3,4.4-0.6,8.8-1,13.2
		c-0.2,2.2-1.5,3.1-3.7,2.7c-0.7-0.1-1.4-0.4-2.1-0.5c-4-0.8-4.2-1.1-4.2-5.2c0-3.1-0.2-6.2,0.6-9.2c0.4-1.5-0.5-2.5-2.2-2.6
		c-2.6-0.1-5.3-0.1-8,0c-1.6,0.1-2.5,1-2.5,2.6c0,2.6-0.3,5.3,0.4,7.9c0.3,1,0.5,2.1,0.3,3c-0.4,2.9-1.9,4.5-4.6,4.3
		c-0.7-0.1-1.5,0-2.2,0c-2.6-0.1-2.8-0.4-3.3-3.1c-0.7-3.3-0.7-6.7-1.2-10.1c-1-6.4-1.4-12.9-2.1-19.3c-0.1-1.3-0.4-2.6-0.6-3.9
		c-0.3-2.1,0.2-3.2,2-3.9c2.2-0.9,4.5-1.4,6.9-1.3c2,0.1,3.3,1.3,3.5,3.3c0.2,1.6,0.1,3.2,0.1,4.9c0,0.9,0,1.8,0,2.7
		c0.3,3.3,1,4,4.4,4c1.9,0,3.8,0.1,5.8-0.1c2.4-0.2,3.4-1.2,3.5-3.6c0.1-2.5,0.1-5,0.3-7.5c0.3-2.8,1.1-3.6,3.9-3.7
		c1.6-0.1,3.2-0.1,4.9,0c1.8,0.1,2.8,0.9,2.9,2.7C616.3,750.7,616.2,752.3,616.2,753.4z"/>
	<path id="XMLID_607_" class="st3" d="M1293.2,1450.8c0,6.9,0,13.9,0,20.8c0,0.1,0,0.3,0,0.4c0.3,2.7-0.9,4.1-4.5,3.5
		c-0.9-0.1-1.6-0.7-2-1.6c-0.8-2.2-1.7-4.4-2.5-6.6c-2.2-6.2-4.4-12.5-6.6-18.7c-0.1-0.4-0.4-0.8-0.7-1.1c-0.2-0.2-0.6-0.4-0.8-0.3
		c-0.4,0.2-0.9,0.5-0.9,0.8c-0.2,1-0.4,2-0.4,3c0,6.5,0.1,13,0.1,19.5c0,0.6,0.1,1.2,0,1.8c-0.1,2.6-0.9,3.4-3.4,3.5
		c-2.8,0.1-3.6-0.8-3.6-3.7c0.1-12.5,0.1-25.1,0.1-37.6c0-2.2-0.1-4.4,0-6.6c0-1.6,1-2.4,2.5-2.5c2.7-0.2,4.1,1.2,4.9,3.5
		c2.9,8.2,5.9,16.3,8.9,24.5c0.1,0.4,0.3,0.9,0.7,1.1c0.3,0.2,0.8,0.3,1.1-0.2c0.8-1.2,0.5-2.6,0.5-3.9c0-6.5-0.1-13-0.1-19.5
		c0-0.7,0-1.5,0-2.2c0-1.2,0-2.5,1.3-3c1.6-0.6,3.2-0.5,4.6,0.6c0.4,0.3,0.6,1,0.7,1.6c0.1,0.7,0,1.5,0,2.2
		C1293.2,1437,1293.2,1443.9,1293.2,1450.8C1293.2,1450.8,1293.2,1450.8,1293.2,1450.8z"/>
	<path id="XMLID_604_" class="st3" d="M1440.4,1402c-0.1,0-0.7,0-1.3-0.1c-1.1-0.2-1.8-1.1-1.8-2.2c0-0.4,0.1-0.9,0.2-1.3
		c1.4-6.8,2.9-13.6,4.2-20.4c1.2-6.1,2.2-12.2,3.3-18.3c1.2-6.2,2.4-12.4,3.6-18.6c0.4-1.9,1.1-2.6,3-2.6c0.7,0,1.5,0.1,2.2,0.2
		c1.1,0.2,1.9,0.9,2,2c0.5,5.6,2,11,3,16.5c2.1,11.2,4.3,22.3,6.5,33.4c0.6,2.9,0.4,5.9,1.5,8.7c0.4,1-0.3,2-1.5,2.3
		c-0.9,0.2-1.8,0.3-2.6,0.2c-2.2-0.1-3.2-0.9-3.6-3.1c-0.3-1.7-0.4-3.5-0.7-5.3c-0.2-1.4-0.9-2.1-2.4-2.1c-2.4-0.1-4.7-0.1-7.1,0
		c-1.9,0.1-2.6,0.7-3,2.6c-0.3,1.6-0.6,3.2-0.7,4.8c-0.2,2.4-1.4,3-3.4,3.1C1441.4,1402,1441.1,1402,1440.4,1402z M1452.2,1358.6
		c-1.4,2.4-1.8,4.8-2.1,7.3c-0.6,4.5-1,9.1-2,13.5c-0.1,0.6-0.2,1.2-0.2,1.7c0,1,0.5,1.7,1.5,1.9c1.6,0.2,3.2,0.3,4.8,0.2
		c1.8-0.1,2.3-0.8,2.1-2.5c-1-6.8-2-13.6-3.1-20.5C1453.2,1359.7,1453.2,1359.1,1452.2,1358.6z"/>
	<path id="XMLID_601_" class="st4" d="M519.1,906.5c0-4.6,0-9.1,0-13.7c0-0.9,0-1.8,0.1-2.6c0.2-1.1,0.9-1.8,1.9-2.2
		c0.4-0.1,0.9-0.2,1.3-0.2c5.3,0,10.6-0.5,15.9,0.5c3.9,0.7,7.6,2.1,10.7,4.8c2.3,2,3.7,4.5,4.4,7.5c1,4.1,1,8.3-0.2,12.2
		c-1.4,4.6-4.5,8.2-9.3,10c-1,0.4-2,0.6-2.9,1.1c-2,1-4.2,1.4-6.4,1.4c-3.8,0.1-7.7,0.1-11.5,0.1c-0.4,0-0.9,0-1.3-0.1
		c-1.8-0.3-2.6-1.1-2.7-2.9c-0.1-1,0-2.1,0-3.1C519.1,915,519.1,910.8,519.1,906.5C519.1,906.5,519.1,906.5,519.1,906.5z
		 M531.6,906.4c0,2.6-0.1,5.3,0,7.9c0.1,2.3,1.8,3.3,4,2.4c0.7-0.3,1.3-0.7,1.9-1.2c5.7-4.4,5.1-13.5,0.7-18.2
		c-0.7-0.8-1.7-1.2-2.7-1.4c-2.3-0.5-3.7,0.5-3.8,2.9C531.6,901.4,531.6,903.9,531.6,906.4z"/>
	<path id="XMLID_600_" class="st4" d="M1121.3,1370.2c0-9.1,0.1-18.3-0.1-27.4c0-3,0.7-4.2,4.2-4c0.6,0,1.2,0.1,1.8,0.2
		c1,0.2,1.6,0.8,1.6,1.8c0.1,0.9,0,1.8,0,2.7c0,6-0.1,12.1-0.1,18.1c0,1.5-0.2,3,0.6,4.3c0.1,0.2,0.5,0.4,0.7,0.4
		c0.3,0,0.6-0.1,0.8-0.3c0.3-0.3,0.5-0.7,0.6-1.1c0.9-3.3,2.5-6.3,3.6-9.5c1.5-4.5,3.8-8.6,5.3-13.1c1-3,1.9-3.5,4.8-3.5
		c3,0,3.7,1,2.5,3.7c-2.6,5.9-5.3,11.8-8,17.7c-1,2.1-1.9,4.3-3,6.4c-0.7,1.4-0.7,2.8-0.2,4.3c0.6,1.5,1.2,3,1.8,4.5
		c2.9,6.8,5.7,13.6,8.6,20.3c0.5,1.2,0.9,2.5,1.3,3.7c0.3,1-0.2,1.8-1.2,2c-0.9,0.2-1.8,0.2-2.6,0.3c-3,0.1-3.6-0.2-4.7-2.9
		c-1.4-3.6-2.7-7.2-4-10.8c-1.6-4.4-3.1-8.9-4.7-13.3c-0.1-0.3-0.7-0.6-1-0.6c-0.3,0.1-0.8,0.5-0.9,0.9c-0.2,1.5-0.3,2.9-0.3,4.4
		c0,6.5,0.1,13,0.1,19.5c0,1.7-0.5,2.4-1.7,2.6c-1.2,0.2-2.4,0.2-3.5,0.1c-1.6-0.1-2.4-1-2.4-2.6c0-4.7,0-9.4,0-14.2
		C1121.3,1379.9,1121.3,1375.1,1121.3,1370.2C1121.3,1370.2,1121.3,1370.2,1121.3,1370.2z"/>
	<path id="XMLID_597_" class="st4" d="M1284.7,1401.8c-2.6,0-3.6-0.9-4-3.6c-0.2-1.6-0.3-3.2-0.6-4.8c-0.3-1.4-0.9-2-2.4-2.1
		c-2.5-0.1-5-0.1-7.5,0c-2.1,0.1-2.8,0.8-3.3,2.9c-0.4,1.9-0.6,3.8-1,5.7c-0.2,1.2-0.9,1.8-2.1,1.9c-0.9,0-1.8,0.1-2.7,0
		c-1.2-0.1-1.9-0.9-1.9-2c0.1-0.9,0.2-1.8,0.4-2.6c1.6-7.8,3-15.6,4.3-23.5c1-6.5,2.7-13,3.7-19.5c0.7-4.1,1.8-8.1,2.3-12.1
		c0.4-2.8,1.8-3.4,4.2-3.2c2.1,0.2,2.7,0.9,3.1,3c1.5,8,3,15.9,4.5,23.9c1.2,6.5,2.3,13.1,3.4,19.6c0.8,4.5,1.7,9,2.6,13.4
		c0.4,1.9-0.2,2.7-2.1,3C1285.2,1401.7,1285,1401.7,1284.7,1401.8z M1272.9,1383.5c1,0,1.6,0,2.2,0c2.7-0.1,3.2-0.8,2.8-3.6
		c-0.9-6.1-1.8-12.2-2.7-18.3c-0.1-0.6-0.3-1.1-0.6-1.6c-0.2-0.4-1.2-0.5-1.5-0.2c-1.2,1.1-1.5,2.5-1.7,4
		c-0.6,5.6-1.4,11.1-2.4,16.6c-0.4,1.9,0.3,2.8,2.2,3.1C1271.9,1383.5,1272.6,1383.5,1272.9,1383.5z"/>
	<path id="XMLID_594_" class="st4" d="M578.9,925.8c-1.5-0.1-3.2-0.2-5-0.4c-6.9-0.8-12.4-7.5-13.2-13.1c-0.5-3.5-0.7-7-0.3-10.6
		c0.7-5.9,4-10.2,9-12.9c3.5-1.9,7.5-2.5,11.6-2c5.1,0.6,9.8,1.9,13.2,6.2c1.7,2.1,3,4.3,3.6,7c0.8,3.8,0.8,7.6,0.2,11.4
		c-1.2,7.6-7.1,13.3-14.8,14.1C581.8,925.8,580.5,925.8,578.9,925.8z M585.6,906.3c0.3-2.7-0.6-5.3-1.8-7.9
		c-0.3-0.6-0.7-1.4-1.3-1.7c-2.8-1.7-6.9-1.2-8.3,2c-2,4.5-2,9.1-0.7,13.7c0.2,0.8,0.8,1.6,1.2,2.3c1.7,3.6,7.4,3,9.1-0.2
		C585.1,912,585.7,909.4,585.6,906.3z"/>
	<path id="XMLID_591_" class="st3" d="M1544.9,1402c-3.1,0-4.2-0.9-4.6-3.5c-0.2-1.5-0.3-2.9-0.4-4.4c-0.2-1.8-0.8-2.5-2.4-2.5
		c-2.6-0.1-5.3,0-8,0.1c-1.3,0-2.2,0.8-2.4,2.2c-0.3,2-0.6,4.1-1,6.1c-0.3,1.4-0.9,2-2.4,2.1c-3.9,0.3-5.6-0.2-4.5-4.9
		c1.5-6.5,3-12.9,3.9-19.5c0.8-5.8,2.1-11.6,3.1-17.4c1-6.4,2.3-12.7,3.5-19.1c0.3-1.7,1-2.4,2.6-2.5c0.9,0,1.8,0,2.6,0.2
		c1.3,0.3,2,1,2.3,2.4c1.1,6.4,2.2,12.8,3.4,19.1c1.8,9.7,3.6,19.4,5.5,29.1c0.7,3.5,0.6,7.1,2,10.4c0.3,0.7-0.3,1.5-1,1.7
		C1546.2,1401.8,1545.4,1401.9,1544.9,1402z M1533.5,1359.3c-1.3,1.1-1.6,2.5-1.8,3.7c-1,6-1.4,12-2.7,17.9c-0.2,1,0.3,1.8,1.2,2
		c2,0.5,4.1,0.6,6.1,0.1c1-0.2,1.4-1,1.3-2c-0.1-1-0.3-2-0.4-3.1c-0.9-5.4-1.7-10.8-2.6-16.1
		C1534.5,1361,1534.4,1360.1,1533.5,1359.3z"/>
	<path id="XMLID_588_" class="st3" d="M1602.6,1402c-2.8,0-3.9-0.9-4.3-3.6c-0.2-1.5-0.3-2.9-0.5-4.4c-0.2-1.9-0.7-2.5-2.4-2.5
		c-2.6-0.1-5.3,0-8,0.1c-1.3,0-2.2,0.8-2.4,2.1c-0.3,1.9-0.6,3.8-1,5.7c-0.4,2.1-0.8,2.5-2.9,2.6c-4,0.2-4.8-0.7-4.1-4.5
		c1.3-6.5,2.9-13,3.8-19.5c0.9-6.1,2.2-12.2,3.2-18.3c1-6.2,2.3-12.4,3.5-18.7c0.3-1.7,1-2.3,2.6-2.4c0.9-0.1,1.8,0,2.6,0.2
		c1.2,0.2,2.1,0.9,2.3,2.3c1,6.1,2.1,12.2,3.2,18.3c1,5.6,2.3,11.2,3.2,16.9c1,6.5,2.8,13,3.4,19.6c0.1,1,0.6,2,0.8,3
		c0.5,1.8-0.1,2.8-2.1,3.1C1603.3,1401.9,1602.9,1402,1602.6,1402z M1591.7,1383.3c0.6,0,1.2,0,1.8,0c1.9-0.2,2.5-1,2.2-3
		c-0.7-3.9-1.3-7.8-2-11.7c-0.3-2.2-0.6-4.4-1-6.5c-0.2-0.9,0-2.4-1.4-2.4c-0.8,0-1.2,1.2-1.3,2.1c-0.3,1.4-0.6,2.9-0.8,4.3
		c-0.6,4.1-1.1,8.2-1.7,12.2C1586.7,1382.9,1587,1383.3,1591.7,1383.3z"/>
	<path id="XMLID_587_" class="st4" d="M1056.4,1364.8c0-7.2,0-14.5,0-21.7c0-0.6-0.1-1.2,0-1.8c0.1-1.6,0.9-2.4,2.5-2.6
		c0.3,0,0.6,0,0.9,0c3.2-0.1,3.9,0.6,3.9,3.8c0,12.4,0,24.8,0,37.2c0,2.2,0,4.4,0.1,6.6c0,1,0.1,2.1,0.3,3.1c0.9,3.5,3.5,5.1,7,4.4
		c1.1-0.2,1.9-0.8,2.4-1.7c0.9-1.4,1.3-2.9,1.3-4.6c0-3.7,0.1-7.4,0.1-11.1c0-11.2,0.1-22.4-0.1-33.7c-0.1-3.6,1.3-4.1,4.2-4
		c2.5,0.1,3.2,0.7,3.2,3.2c0,13.9,0.1,27.8-0.1,41.6c0,3.9-0.2,7.9-1.9,11.7c-1.8,4.1-4.8,6.2-9.2,6.4c-3,0.1-5.8,0-8.5-1.7
		c-3.2-2.1-5.2-4.8-5.5-8.6c-0.3-3.1-0.5-6.2-0.5-9.3C1056.4,1376.3,1056.4,1370.6,1056.4,1364.8
		C1056.4,1364.8,1056.4,1364.8,1056.4,1364.8z"/>
	<path id="XMLID_586_" class="st3" d="M1378.4,1370c0-9.3,0-18.6,0-27.9c0-2.7,0.6-3.4,3.4-3.5c4.6-0.1,9.2-0.1,13.7,0
		c2,0,2.6,0.7,2.7,2.7c0,0.7,0,1.5,0,2.2c0,2.8-0.8,3.7-3.8,3.4c-1.8-0.2-3.5-0.1-5.3-0.1c-1.8,0-3,1-3,3c0.1,3.8,0,7.7,0,11.5
		c0,2.9,0.6,3.5,3.7,3.5c1.2,0,2.4-0.1,3.5,0c3.6,0.1,4.2,0.6,4.1,4.1c0,3.5-0.6,4-4.1,4.1c-1.6,0-3.3,0-4.9,0.1
		c-1.7,0.1-2.4,0.9-2.4,2.5c0,5.2-0.1,10.3,0,15.5c0,1.4,0.8,2.3,2.1,2.3c2.2,0.1,4.4,0.1,6.6,0.1c2.8,0,3.4,0.6,3.5,3.3
		c0,0.1,0,0.3,0,0.4c0.1,4.1-0.3,4.5-4.4,4.6c-3.5,0-7.1,0-10.6,0c-1,0-2.1,0-3.1-0.2c-1.1-0.2-1.8-0.9-1.9-2.1c0-0.6,0-1.2,0-1.8
		C1378.5,1388.6,1378.5,1379.3,1378.4,1370C1378.5,1370,1378.5,1370,1378.4,1370z"/>
	<path id="XMLID_583_" class="st4" d="M1584.3,1450.3c0-6.8,0-13.6,0-20.4c0-0.7,0-1.5,0-2.2c0.1-1.3,0.6-1.9,1.9-2
		c3.7-0.3,7.4-0.6,11,0.1c3.5,0.7,6.1,2.9,7.3,6.4c1.5,4.5,1,9-0.2,13.5c-0.5,1.8-1.7,3.1-3.3,4c-1.4,0.9-1.8,2.2-1.4,3.8
		c0.2,1,0.4,2,0.8,3c2.2,5.2,3.3,10.7,5.7,15.8c0.2,0.4,0.3,0.8,0.3,1.3c0.1,0.7-0.3,1.2-0.8,1.5c-1.6,0.6-3.2,0.6-4.8,0.1
		c-1.1-0.4-1.5-1.4-1.8-2.4c-1.1-3.4-2.1-6.7-3.2-10.1c-0.3-1-0.5-2-0.8-3c-0.3-0.9-0.9-1.6-2-1.4c-0.8,0.1-1.2,0.9-1.2,1.6
		c-0.1,1.9-0.2,3.8-0.2,5.7c0,2.4,0.2,4.7,0.2,7.1c0,1.7-0.8,2.5-2.3,2.7c-0.7,0.1-1.5,0.1-2.2,0c-2.3-0.2-2.8-0.7-2.8-3
		c0-6.2,0-12.4,0-18.6C1584.3,1452.7,1584.3,1451.5,1584.3,1450.3C1584.3,1450.3,1584.3,1450.3,1584.3,1450.3z M1591.4,1438.3
		C1591.5,1438.3,1591.5,1438.3,1591.4,1438.3c0.1,2,0,4.1,0.1,6.1c0.1,1.3,1.2,2,2.5,2c1.1,0,1.9-0.6,2.6-1.4
		c2.8-3.3,2.9-9.4,0.2-12.7c-0.4-0.4-0.8-0.9-1.3-1.1c-1.9-1.1-4,0.1-4.1,2.3C1591.4,1435.1,1591.4,1436.7,1591.4,1438.3z"/>
	<path id="XMLID_580_" class="st3" d="M779.7,925.4c-0.7,0-1.5-0.1-2.2,0c-2.4,0.3-4-0.6-4.6-3c-0.6-2.2-2.1-3-4.3-2.9
		c-2.2,0.1-4.4,0-6.6,0c-1.9,0-3.4,0.8-3.9,2.9c-0.1,0.4-0.3,0.8-0.4,1.3c-0.4,1.1-1.2,1.7-2.3,1.7c-2.5,0-5,0.1-7.5,0
		c-1.6-0.1-2.4-1.2-2-2.8c0.3-1.1,0.8-2.2,1.2-3.3c1.3-3.4,2.6-6.9,3.8-10.3c2.3-6.3,4.6-12.7,6.9-19c0.5-1.3,1.3-2,2.6-2
		c3.4,0,6.8-0.1,10.2,0c1.8,0.1,2.9,1.1,3.5,2.9c1.7,5,3.3,10,5.1,15c0.8,2.2,1.6,4.4,2.5,6.6c1.3,3.1,1.8,6.6,3.7,9.4
		c0.2,0.3,0.3,0.8,0.4,1.3c0.2,1.1-0.4,2.2-1.5,2.3c-1.5,0.1-2.9,0-4.4,0C779.7,925.3,779.7,925.4,779.7,925.4z M765.6,912
		C765.6,912,765.6,912,765.6,912c0.4,0,0.9,0,1.3,0c2.5-0.1,3.1-0.9,2.3-3.3c-0.9-2.3-1.7-4.7-2-7.2c-0.1-0.6-0.3-1.1-0.6-1.6
		c-0.2-0.5-1.1-0.6-1.5-0.2c-0.9,0.9-1.2,2-1.5,3.1c-0.6,1.8-0.8,3.7-1.6,5.5c-1.3,2.9,0.3,3.8,2.7,3.8C765,912,765.3,912,765.6,912
		z"/>
	<path id="XMLID_579_" class="st2" d="M494.5,809.3c-3.2-0.1-5.6,0.2-8,1.3c-3.7,1.8-7.8,1.6-11.7,1.4c-1.9-0.1-3.3-1.2-4.3-2.7
		c-1.8-2.8-2.3-5.7-1.4-8.9c0.8-2.9,2.3-5.5,4.2-7.7c3.4-3.8,7.2-6.9,11.8-9.1c0.9-0.4,1.9-0.9,2.9-0.9c0.7,0,1.5,0,2.1,0.6
		c1.4,1.3,2.6,2.9,3.2,4.7c0.5,1.4-0.1,2.7-1.6,3.1c-1.9,0.5-3.5,1.4-5.3,2.1c-2.7,1.2-4.4,3.4-6.3,5.4c-0.9,1.1-0.5,2.3,0.8,2.8
		c0.8,0.3,1.7,0.5,2.6,0.3c1.6-0.3,3.3-0.3,4.8-0.9c3-1.4,6.3-1.5,9.5-2c2.4-0.4,4.7-0.1,6.8,1.2c4.1,2.4,5.7,6.4,4.3,10.9
		c-1.1,3.4-2.8,6.5-5.3,9.1c-3.5,3.6-7.6,6.5-11.9,9.1c-1,0.6-2,0.5-2.8-0.3c-1.2-1.1-2.4-2.2-3.5-3.4c-1.1-1.2-1-2.3,0.2-3.5
		c1-1,2.2-1.5,3.4-2.1c3.1-1.5,5.9-3.4,8.1-5.9c0.6-0.6,1.1-1.4,1.4-2.2c0.5-1-0.2-2.2-1.3-2.4c-0.3-0.1-0.6-0.1-0.9-0.1
		C495.6,809.3,494.8,809.3,494.5,809.3z"/>
	<path id="XMLID_578_" class="st4" d="M1494.6,1447c0-5.9,0-11.8,0-17.7c0-0.6,0-1.2,0.1-1.8c0.1-0.8,0.6-1.3,1.3-1.6
		c1.3-0.5,2.6-0.5,3.9,0c0.7,0.3,1.2,0.9,1.3,1.6c0.1,1,0.1,2.1,0.1,3.1c0,9.4,0,18.9,0,28.3c0,1.8,0.1,3.5,0.1,5.3
		c0,1.4,0.5,2.6,1.1,3.8c0.9,1.9,2.5,2.3,4.4,2.2c1.7,0,2.7-0.8,3.4-2.3c1.1-2.1,1.1-4.2,1.1-6.5c0-10.3,0-20.6,0-31
		c0-1,0-2.1,0.1-3.1c0-0.6,0.3-1.2,0.9-1.4c1.7-0.7,3.4-0.8,5.1,0.1c0.6,0.3,0.9,0.8,0.9,1.4c0.1,0.7,0.1,1.5,0.1,2.2
		c0,10.5,0,20.9,0,31.4c0,1.8-0.1,3.5-0.4,5.3c-0.5,3.2-1.9,5.7-4.8,7.6c-1.4,0.9-2.8,1.5-4.5,1.5c-0.7,0-1.5,0-2.2,0
		c-7.6,0-11.8-4.2-11.9-11.7c0-4,0-8,0-11.9C1494.6,1450.2,1494.6,1448.6,1494.6,1447C1494.6,1447,1494.6,1447,1494.6,1447z"/>
	<path id="XMLID_575_" class="st4" d="M1368.6,1450.2c0-6.8,0-13.6,0-20.4c0-0.6,0-1.2,0-1.8c0.1-1.5,0.7-2.4,2.1-2.4
		c3.5-0.1,7.2-0.5,10.6,0.1c3.8,0.7,6.7,3.1,7.8,7c1.1,4.1,0.8,8.2-0.2,12.2c-0.5,1.8-1.5,3.2-3.1,4.2c-2.4,1.4-2.6,3.4-1.8,5.7
		c1.3,3.8,2.6,7.5,4,11.2c0.8,2.2,1.7,4.4,2.6,6.6c0.5,1.4-0.1,2.3-1.5,2.5c-0.7,0.1-1.5,0.2-2.2,0.2c-1.8,0-3.1-0.8-3.7-2.6
		c-1.2-3.8-2.4-7.6-3.6-11.4c-0.4-1.3-0.4-2.6-1.4-3.6c-0.4-0.4-0.8-0.9-1.5-0.8c-0.8,0.1-0.8,0.8-0.8,1.3c0,3.2,0,6.5,0,9.7
		c0,1.6,0.1,3.2,0,4.9c-0.1,1.4-0.8,2.1-2.2,2.3c-0.4,0.1-0.9,0.1-1.3,0.1c-2.9,0-3.6-0.7-3.6-3.7
		C1368.6,1464.7,1368.6,1457.4,1368.6,1450.2z M1375.6,1438.6C1375.6,1438.6,1375.7,1438.6,1375.6,1438.6c0.1,1.9,0,3.8,0.1,5.7
		c0.1,2,2.3,2.9,3.9,1.8c0.2-0.2,0.5-0.4,0.7-0.6c3.4-3.3,3.6-9.8,0.5-13.2c-0.4-0.4-0.9-0.8-1.4-1.1c-1.7-0.9-3.7,0.2-3.8,2.1
		C1375.6,1435,1375.6,1436.8,1375.6,1438.6z"/>
	<path id="XMLID_574_" class="st2" d="M551.3,773.9c0,2.2-0.6,3-2.9,3.8c-2,0.6-4,0.8-5.8,2c-0.6,0.4-1.3,0.7-1.8,1.2
		c-0.6,0.5-0.8,1.2-0.6,2c0.1,0.6,0.4,1.1,0.7,1.6c2.2,4.5,2.8,4.7,7.5,2.6c1.2-0.5,2.4-1.1,3.7-1.5c1.2-0.3,2.4,0.1,3.1,1.2
		c1.1,1.5,1.2,3.3,1.3,5c0.1,0.7-0.6,1.4-1.3,1.7c-0.9,0.5-1.9,0.8-2.8,1.2c-3.7,1.4-7.4,2.9-11.1,4.3c-0.8,0.3-1.7,0.5-2.6,0.7
		c-2.1,0.4-3,0-3.9-2c-1.4-2.8-2.6-5.6-3.8-8.4c-3.1-6.8-6.2-13.6-9.3-20.5c-0.2-0.4-0.4-0.8-0.5-1.2c-1.4-3.5-1-4.6,2.6-6.1
		c4.8-1.9,9.5-3.9,14.5-5.2c1.4-0.4,2.7-1.1,4.1-1.6c2.2-0.8,3.8,0,4.5,2.1c1.4,4.2,1.1,4.8-3.1,6.7c-1.8,0.8-3.6,1.2-5.5,1.7
		c-2.5,0.6-3.1,1.6-2.9,4.2c0.2,2,1.4,3,3.3,2.5c0.8-0.2,1.6-0.7,2.4-1c1.8-0.6,3.6-1.3,5.5-1.6c2.8-0.5,4.5,0.9,4.8,3.8
		C551.3,773.3,551.3,773.6,551.3,773.9z"/>
	<path id="XMLID_570_" class="st4" d="M1417.5,1450.4c0-6.8,0-13.6,0-20.4c0-0.6,0-1.2,0-1.8c0.1-1.5,0.6-2.3,2-2.5
		c3.4-0.4,6.8-0.6,10.1,0c3.7,0.7,6.7,3,7.8,7c0.7,2.7,1.2,5.4,0.5,8.3c-0.6,2.2-1.5,4.1-3.1,5.7c-1.7,1.9-1.8,2.9-0.1,4.6
		c4.7,4.8,4.9,10.4,3.3,16.4c-0.7,2.6-2.2,4.4-4.2,6c-1.2,1-2.5,1.6-4,1.6c-2.8,0-5.6,0.1-8.4,0.1c-3.3-0.1-3.9-0.6-3.9-3.9
		C1417.5,1464.5,1417.5,1457.5,1417.5,1450.4C1417.5,1450.4,1417.5,1450.4,1417.5,1450.4z M1424.4,1460.9
		C1424.4,1460.9,1424.4,1460.9,1424.4,1460.9c0,2.2,0,4.4,0,6.6c0,0.9,0.3,1.8,1.1,2.3c1.1,0.6,2.4,0.7,3.3-0.1
		c1.7-1.4,3.3-3,3.3-5.5c0-1.5,0.2-3,0.1-4.4c-0.1-2.6-1.2-4.9-2.9-6.8c-1-1.1-2.4-1.4-3.6-0.9c-1.1,0.5-1.3,1.5-1.3,2.6
		C1424.4,1456.8,1424.4,1458.8,1424.4,1460.9z M1424.4,1438.4C1424.4,1438.4,1424.4,1438.4,1424.4,1438.4c0,1.9-0.1,3.8,0.1,5.7
		c0.1,2,2.2,3,3.9,2c0.5-0.3,0.9-0.7,1.3-1.2c2.8-3.2,2.9-9.4,0.2-12.7c-0.4-0.4-0.8-0.9-1.3-1.1c-2.1-0.8-4.2,0.3-4.1,2.4
		C1424.4,1435.2,1424.4,1436.8,1424.4,1438.4z"/>
	<path id="XMLID_569_" class="st4" d="M1445.9,1446.9c0-5.9,0-11.8,0-17.7c0-3.1,1.5-4.2,4.5-3.5c0.9,0.2,1.6,0.8,1.7,1.8
		c0.1,0.9,0.1,1.8,0.1,2.7c0,9.3,0,18.6,0,27.9c0,2.2,0.1,4.4,0.3,6.6c0.1,0.9,0.3,1.8,0.6,2.6c1.1,3,3.2,3.6,6.5,2.8
		c1.1-0.3,1.6-1.2,2.1-2.2c0.9-1.9,1.1-4,1.1-6c0-10.2,0-20.4,0-30.6c0-0.9,0-1.8,0-2.7c0.1-2.2,0.8-3,2.9-3c0.6,0,1.2,0.1,1.8,0.1
		c1.5,0.2,2.1,0.8,2.2,2.3c0,0.6,0,1.2,0,1.8c0,10.6,0,21.3,0,31.9c0,3-0.3,5.9-1.6,8.6c-1.3,2.8-4.6,5.1-7.6,5.2
		c-1.2,0.1-2.4,0.1-3.5,0c-6.4-0.1-10.7-4.4-10.9-10.9c-0.1-4,0-8,0-12C1446,1450.7,1446,1448.8,1445.9,1446.9
		C1446,1446.9,1446,1446.9,1445.9,1446.9z"/>
	<path id="XMLID_566_" class="st4" d="M1023.3,1369.8c0-9,0-18,0-27c0-0.6,0-1.2,0-1.8c0.1-1,0.7-1.8,1.6-1.9c4.7-0.5,9.5-1,14,0.2
		c3.2,0.8,5.6,3.3,6.6,6.6c1.9,6.2,2,12.4,0.2,18.7c-1.2,4.3-6,7.8-10.5,8.1c-0.4,0-0.9,0-1.3,0c-2.8,0.2-3.3,0.8-3.3,3.5
		c0,5.6,0,11.2,0,16.8c0,1.9,0.1,3.8,0,5.7c0,1.6-0.8,2.4-2.4,2.7c-0.7,0.1-1.5,0.1-2.2,0.1c-2-0.2-2.8-1-2.8-3.1
		c0-3.5,0-7.1,0-10.6C1023.3,1381.8,1023.3,1375.8,1023.3,1369.8C1023.3,1369.8,1023.3,1369.8,1023.3,1369.8z M1030.6,1355.6
		C1030.6,1355.6,1030.6,1355.6,1030.6,1355.6c0,2.2-0.1,4.4,0,6.6c0.1,2,1.2,3,3.1,2.8c2.2-0.2,3.9-1.4,4.7-3.4
		c1.6-3.9,1.1-7.8-0.1-11.6c-0.6-1.9-2.2-3.1-4.3-3.3c-2.1-0.3-3.4,0.8-3.5,2.9C1030.5,1351.5,1030.6,1353.6,1030.6,1355.6z"/>
	<path id="XMLID_565_" class="st3" d="M1406.1,1371.2c-0.2-5.9,0.5-11.8,1.6-17.6c1.2-6.3,4.6-11.4,10.6-14.3
		c0.7-0.3,1.4-0.6,2.1-0.6c2.1-0.1,4.1-0.1,6.2,0c1.3,0.1,2.2,0.9,2.5,2.1c0.2,0.7,0.4,1.4,0.4,2.2c0.3,2.5-0.6,3.6-3.1,3.9
		c-0.3,0-0.6,0-0.9,0c-1.8,0-3.5-0.1-5,1.2c-1.9,1.7-3.7,3.3-4.5,5.9c-0.8,2.7-1.5,5.4-1.6,8.2c-0.2,6.8-0.3,13.6,0.2,20.4
		c0.3,3.8,1.5,7.1,4.7,9.5c2.1,1.6,4.2,2,6.6,1.1c0.6-0.2,1.1-0.5,1.6-0.7c1-0.3,1.7,0.1,1.8,1.2c0.1,0.9,0.1,1.8,0.1,2.7
		c-0.1,3.2-1.9,5.1-5.1,5.5c-6.3,0.9-12.7-3.3-15-8.6c-1.8-4-2.4-8.2-2.9-12.4C1406.2,1377.7,1406.2,1374.5,1406.1,1371.2z"/>
	<path id="XMLID_564_" class="st3" d="M1204.3,1446.5c0-5.8,0-11.5,0-17.3c0-3.1,1.3-4.3,4.3-3.9c1.8,0.2,2.6,1.1,2.7,2.9
		c0.1,1.3,0,2.7,0,4c0,8.9,0,17.7,0,26.6c0,1.9,0.1,3.8,0.2,5.8c0.1,0.9,0.2,1.8,0.5,2.6c0.8,2.3,2,3,4.3,3c2,0,3.3-0.9,4-2.8
		c0.8-1.8,0.8-3.7,0.8-5.7c0-10.2,0-20.4,0-30.6c0-1-0.1-2.1,0-3.1c0.1-1.8,1-2.6,2.8-2.7c0.7,0,1.5,0,2.2,0.2
		c1.5,0.2,2.1,0.9,2.2,2.3c0.1,0.6,0,1.2,0,1.8c0,10.8,0,21.6,0,32.3c0,3.1-0.2,6.3-1.9,9c-1.6,2.7-4,4.7-7.4,4.9
		c-1,0.1-2.1,0-3.1,0c-7.4-0.1-11.7-4.5-11.8-12c0-3,0-5.9,0-8.9C1204.3,1452.1,1204.3,1449.3,1204.3,1446.5
		C1204.3,1446.5,1204.3,1446.5,1204.3,1446.5z"/>
	<path id="XMLID_563_" class="st3" d="M1113.8,1446.4c0-5.5,0-10.9,0-16.4c0-0.7-0.1-1.5,0-2.2c0.1-1.3,0.8-2.1,2.2-2.4
		c0.9-0.1,1.8-0.1,2.6,0c1.3,0.2,2.1,1,2.2,2.4c0.1,0.9,0,1.8,0,2.7c0,9.4,0,18.9,0,28.3c0,1.9,0.1,3.8,0.2,5.8
		c0.1,0.9,0.3,1.8,0.6,2.6c1,2.6,3.5,3.6,6.1,2.7c0.7-0.3,1.2-0.8,1.6-1.5c1.2-2,1.4-4.2,1.4-6.4c0-10.3,0-20.7,0-31
		c0-0.9,0-1.8,0-2.7c0.1-2.3,0.9-3.1,3.3-3c0.6,0,1.2,0.1,1.8,0.2c1.4,0.3,2,1,2.2,2.4c0,0.4,0,0.9,0,1.3c0,11.1,0,22.1,0,33.2
		c0,2.8-0.3,5.6-1.7,8.1c-1.8,3.1-4.2,5.3-8.1,5.2c-1,0-2.1,0-3.1,0c-6.6-0.1-11-4.5-11.2-11.2c-0.1-4.1,0-8.3,0-12.4
		C1113.8,1450.3,1113.8,1448.4,1113.8,1446.4C1113.8,1446.4,1113.8,1446.4,1113.8,1446.4z"/>
	<path id="XMLID_562_" class="st4" d="M1304.3,1401.7c-1.7,0.1-3.4-0.2-4.9-1.2c-1.1-0.7-2.6-0.9-2.9-2.4c-0.4-1.7-0.4-3.5,0.3-5.2
		c0.2-0.6,0.9-0.8,1.5-0.6c0.4,0.1,0.8,0.4,1.1,0.6c5.7,3.5,11.4-1.8,11.2-6.6c-0.1-2.1-0.4-4.1-1.7-5.8c-3-4.2-5.8-8.5-8.9-12.7
		c-2.4-3.3-3.9-6.9-4.5-10.9c-0.5-3.5-0.1-6.8,1-10c1.9-5.3,6.6-9,13.2-7.9c4.6,0.7,6.5,3.1,5.8,7.7c-0.2,1.1-0.8,1.6-1.9,1.2
		c-1.4-0.6-2.7-1.1-4.2-1.2c-3.6-0.1-6.2,1.9-7,5.5c-0.6,2.9,0,5.6,1.6,8c2.1,3.2,4.4,6.3,6.6,9.4c1.8,2.5,3.4,5.2,4.8,7.9
		c2.6,4.9,2.4,10.1,1.1,15.1C1315.1,1398.1,1308.9,1402.3,1304.3,1401.7z"/>
	<path id="XMLID_559_" class="st3" d="M1256.7,1475.8c-0.3,0-0.9,0-1.5-0.2c-1.2-0.3-2.1-1-2.3-2.3c-0.3-2-0.7-4.1-1.2-6.1
		c-0.2-1.1-1-1.8-2.2-1.9c-2.2-0.1-4.4-0.1-6.6,0c-1.2,0-1.9,0.8-2,2c-0.2,2.1-0.3,4.1-1,6.1c-0.8,2.2-4.4,3.2-6.4,1.7
		c-0.7-0.5-0.8-1.2-0.6-2c0.4-2.2,0.9-4.3,1.4-6.5c1.4-6.2,2.8-12.3,4.2-18.5c1.2-5,2.4-10,3.5-15c0.4-1.7,0.6-3.5,1-5.2
		c0.5-2.2,3.7-3.5,5.7-2.2c0.4,0.3,0.8,0.9,1,1.4c0.6,2.1,1.2,4.3,1.6,6.4c2,9.1,4,18.1,5.9,27.2c0.8,3.7,1.5,7.5,2.6,11.2
		C1260.5,1474.5,1260.2,1475.7,1256.7,1475.8z M1245.1,1459.6c1.5,0,2.1,0,2.7,0c1.8-0.2,2.3-0.8,2.1-2.6c-0.2-1.5-0.4-2.9-0.6-4.3
		c-0.7-3.7-1.2-7.5-2.5-11.2c-0.1-0.2-0.4-0.5-0.6-0.5c-0.2,0-0.5,0.3-0.6,0.5c-0.1,0.2-0.2,0.6-0.2,0.8c-0.3,4.3-1.2,8.4-2,12.6
		c-0.2,1-0.4,2-0.4,3c0,0.8,0.5,1.4,1.3,1.5C1244.8,1459.6,1245.4,1459.6,1245.1,1459.6z"/>
	<path id="XMLID_558_" class="st3" d="M1558,1373.8c0-8-0.1-15.9,0-23.9c0-2.1-0.6-3-2.7-3.1c-1.5-0.1-2.9-0.2-4.4-0.4
		c-0.9-0.1-1.5-0.8-1.7-1.8c-0.1-0.3-0.1-0.6-0.1-0.9c-0.4-4.5,0.2-5.2,4.7-5.3c5.2-0.1,10.3-0.1,15.5,0c4.4,0,5.1,1,4.7,5.4
		c-0.2,1.7-1,2.6-2.8,2.8c-1.3,0.1-2.6,0.1-4,0.2c-1.2,0.1-1.8,0.8-1.9,2c0,0.9,0,1.8,0,2.7c0,15.5,0,30.9,0.1,46.4
		c0,4.2-1.1,4.1-4.4,4c-2.3-0.1-3-0.9-3-3.4C1557.9,1390.3,1557.9,1382.1,1558,1373.8C1558,1373.8,1558,1373.8,1558,1373.8z"/>
	<path id="XMLID_557_" class="st4" d="M1158.4,1370.2c0-8.7,0-17.4,0-26.1c0-0.9-0.1-1.8,0-2.7c0.1-1.6,0.8-2.4,2.5-2.6
		c0.6-0.1,1.2-0.1,1.8-0.1c3.8,0,7.7,0,11.5,0c3,0,3.5,0.7,3.6,3.7c0.1,2.9-0.8,4.4-4.2,4.1c-1.9-0.2-3.8-0.1-5.8,0
		c-1.4,0.1-2.2,0.9-2.3,2.3c-0.1,4.6-0.1,9.1,0,13.7c0,1.7,0.8,2.4,2.5,2.5c1.8,0.1,3.5-0.1,5.3,0c2.8,0.1,3.4,0.8,3.4,3.5
		c0,0.1,0,0.3,0,0.4c-0.1,2.9-0.8,3.7-3.6,3.8c-1.6,0.1-3.3,0-4.9,0c-2,0.1-2.7,0.8-2.8,2.7c-0.1,5.2-0.1,10.3,0,15.5
		c0,2.1,0.9,2.8,3.1,2.9c2.1,0.1,4.1-0.1,6.2,0c2.1,0,2.9,0.8,3.1,2.9c0.1,0.7,0,1.5,0,2.2c-0.1,1.6-0.8,2.6-2.4,2.6
		c-4.9,0.1-9.7,0-14.6-0.1c-1.6,0-2.4-1-2.5-2.6c-0.1-0.7,0-1.5,0-2.2C1158.4,1387.9,1158.4,1379.1,1158.4,1370.2z"/>
	<path id="XMLID_556_" class="st3" d="M681.8,924.3c-1.2,1.1-2.6,1.1-4.1,1.1c-4.6,0-9.1,0-13.7,0c-1.6,0-3.2,0.1-4.8,0.2
		c-1.6-1.3-1.6-3-1.6-4.8c0-9.3,0-18.5,0-27.8c0-0.7-0.1-1.5,0-2.2c0.2-2,1.1-2.9,3.1-3c5.9,0,11.8,0,17.6,0c2.5,0,3.4,1,3.3,3.5
		c0,0.4-0.1,0.9-0.1,1.3c-0.3,2.2-0.9,2.9-3.1,2.9c-1.9,0-3.8-0.1-5.7-0.1c-0.9,0-1.8,0.1-2.2,1.1c0,0.1,0,0.1-0.1,0.1h0
		c0,0-0.5,0.2-0.7,0.6c-0.5,0.7-0.3,2.1-0.3,2.1c0.2,2.8,1.1,3.6,3.9,3.6c1.2,0,2.4-0.1,3.5,0c2.1,0.2,3.3,1.7,3.2,4
		c0,2.4-1.1,3.6-3.4,3.7c-1.5,0.1-2.9-0.1-4.4,0c-1.3,0-2.2,0.8-2.6,2c-0.4,1.1-0.5,2.3,0,3.5c0.2,0.4,0.4,0.8,1,0.7
		c0.7,0.6,1.6,0.6,2.5,0.6c1.9,0,3.8,0,5.7-0.1c1.2,0,2.3,0.4,3.1,1.2C681.6,920.4,681.6,922.3,681.8,924.3z"/>
	<path id="XMLID_553_" class="st4" d="M1561.8,1465.1c-0.3,0-0.6,0-0.9,0c-4.3,0.1-4.3,0.1-4.9,4.3c-0.1,1-0.3,2-0.6,3
		c-0.6,2.3-1.7,3.1-4.1,3.1c-1.9,0-2.6-0.9-2.4-2.8c0.1-0.6,0.1-1.2,0.3-1.7c1.2-5.2,2.4-10.3,3.6-15.5c1.1-4.7,2.2-9.5,3.2-14.2
		c1-4.3,1.8-8.7,2.8-13c0.5-2.3,2.8-3.4,5.1-2.6c0.8,0.3,1.1,0.9,1.3,1.7c0.5,2.2,1,4.3,1.5,6.5c2.8,12.7,5.5,25.3,8.4,38
		c0.6,2.7,0,3.8-3.1,3.7c-2.1-0.1-2.8-0.7-3.3-2.8c-0.4-1.7-0.6-3.5-1.1-5.2c-0.5-1.9-1-2.3-3.1-2.4
		C1563.6,1465,1562.7,1465.1,1561.8,1465.1z M1562.7,1459.8c-0.2,0,0.4,0,1-0.1c1.6-0.2,2.3-1,2-2.7c-0.8-4.8-1.7-9.5-2.6-14.3
		c-0.1-0.6-0.3-1.1-0.6-1.7c-0.1-0.2-0.5-0.6-0.6-0.5c-0.4,0.1-0.9,0.4-0.9,0.7c-0.6,3.3-1.2,6.6-1.8,10c-0.3,1.9-0.7,3.7-1,5.6
		c-0.2,2,0.5,2.8,2.3,2.9C1561.1,1459.8,1561.5,1459.8,1562.7,1459.8z"/>
	<path id="XMLID_552_" class="st3" d="M699.7,926c-2.2-0.2-4.4-0.4-6.6-0.7c-2-0.3-2.8-1.2-3-3.2c-0.1-0.6-0.1-1.2-0.1-1.8
		c-0.1-3.6,1.3-4.3,4.2-3.4c2.5,0.8,5.2,1.3,7.8,0.5c1.6-0.5,2.3-1.7,2-3.4c-0.2-0.8-0.5-1.4-1.2-1.8c-1.5-0.9-3-1.8-4.6-2.7
		c-2.9-1.5-5.4-3.5-7.7-5.9c-4.6-4.9-2.3-10,1.1-12.8c4.5-3.7,9.8-4.5,15.4-3.9c1.8,0.2,3.5,0.7,5.2,1.1c1.5,0.4,2.2,1.4,2.3,2.9
		c0,0.1,0,0.3,0,0.4c0.3,4.6-0.6,5.4-5,4.2c-1.3-0.4-2.5-0.8-3.9-0.7c-1.2,0.1-2.3,0.3-3.3,1.1c-0.9,0.7-1.2,1.8-0.7,2.7
		c0.7,1.2,1.7,2,2.9,2.7c3,1.6,5.9,3.3,8.5,5.6c1.2,1.1,2.4,2.2,3.2,3.7c2.2,4.3,0.8,9.1-3.4,11.9C708.8,925.2,704.3,926,699.7,926z
		"/>
	<path id="XMLID_551_" class="st3" d="M1023.3,1450.9c0-6.9,0-13.9,0-20.8c0-0.7,0-1.5,0-2.2c0.1-1.2,0.7-1.9,1.8-2.2
		c0.7-0.2,1.5-0.3,2.2-0.3c2.2,0.1,3.2,1,3.2,3.3c0,4.1-0.1,8.3-0.1,12.4c0,1.5,0.1,2.9,0.3,4.4c0.1,0.6,0.9,0.7,1.4,0.3
		c0.8-0.7,1.3-1.6,1.8-2.5c2.3-5.1,4.6-10.2,7-15.3c1.1-2.5,4.1-3.5,6.7-2.3c0.7,0.3,1.1,1,0.9,1.8c-0.4,1-0.8,1.9-1.3,2.8
		c-3.2,5.8-6.1,11.8-8.9,17.8c-0.7,1.5-0.6,2.7,0.1,4.2c3,6.4,5.8,12.9,9.3,19c1.9,3.3,1.1,4.6-2.8,4.5c-0.6,0-1.2-0.1-1.8-0.1
		c-1.1-0.1-1.9-0.7-2.3-1.7c-1.5-3.5-3-7-4.5-10.6c-0.9-2-1.6-4.1-2.6-6.1c-0.4-0.8-1-1.4-1.7-2c-0.3-0.3-0.8-0.3-1.1,0.2
		c-0.5,1.1-0.4,2.3-0.4,3.5c0,3.7,0.1,7.4,0.1,11.1c0,0.6,0.1,1.2,0.1,1.8c0,3.5-2.9,5.2-6,3.4c-0.5-0.3-0.9-0.8-1-1.3
		c-0.2-0.8-0.1-1.8-0.1-2.6C1023.3,1464.5,1023.3,1457.7,1023.3,1450.9z"/>
	<path id="XMLID_548_" class="st4" d="M1637.6,1475.5c-2.7,0-3.4-0.6-3.9-3.3c-0.3-1.7-0.7-3.5-1.1-5.2c-0.3-1.1-1.1-1.8-2.2-1.9
		c-2.4-0.1-4.7-0.1-7.1,0c-1.4,0.1-2.1,0.8-2.3,2.2c-0.3,1.7-0.4,3.5-0.8,5.2c-0.4,1.9-1.5,2.7-3.4,2.9c-2.3,0.2-3.4-0.8-2.9-3.1
		c1.2-5.3,2.4-10.7,3.5-16c1.2-5.6,2.5-11.2,3.6-16.9c0.7-3.8,1.9-7.4,2.4-11.2c0.3-2.4,3.4-3.6,5.5-2.4c0.7,0.4,1,1.1,1.1,1.8
		c0.4,1.7,0.9,3.4,1.2,5.2c1.2,5.6,2.4,11.3,3.6,16.9c1.1,5,2.3,10.1,3.4,15.1c0.6,2.7,1.2,5.5,1.8,8.2c0.3,1.2-0.3,2-1.5,2.2
		C1638.3,1475.5,1637.9,1475.5,1637.6,1475.5z M1626.6,1459.8C1626.6,1459.8,1626.6,1459.8,1626.6,1459.8c0.6-0.1,1.2,0,1.8-0.1
		c1.9-0.1,2.9-0.9,2.4-3.2c-0.6-2.7-0.9-5.5-1.3-8.3c-0.4-2.3-1-4.6-1.9-6.8c-0.1-0.4-0.6-0.8-1-0.8c-0.6,0-0.9,0.6-1,1.2
		c-0.7,4.5-1.5,9-2.2,13.5c-0.1,0.7-0.2,1.5-0.3,2.2c-0.1,1.2,0.6,1.9,1.8,2.1C1625.4,1459.8,1626,1459.8,1626.6,1459.8z"/>
	<path id="XMLID_547_" class="st2" d="M712.3,793.5c0-1-0.2-1.4-0.7-1.8c-0.9-0.7-1.9-1.4-2.7-2.3c-0.9-0.9-0.9-2.2-0.2-3.3
		c0.3-0.5,0.7-0.9,1.1-1.4c2.5-2.8,3.6-2.8,6.7-0.4c4.1,3.2,8.1,6.3,12.1,9.5c1,0.8,2,1.8,2.9,2.7c3.1,3.1,3,5.2-0.6,7.8
		c-0.9,0.7-2.3,0.8-3.3,0.1c-0.9-0.6-1.6-1.3-2.4-1.9c-1.3-0.8-2.6-0.7-3.6,0.5c-1.8,2-3.5,4-5.3,6c-3.9,4.4-7.8,8.8-11.7,13.2
		c-0.6,0.7-1.2,1.3-2,1.8c-0.8,0.5-1.7,0.6-2.5,0c-1.7-1.4-3.3-2.9-4.9-4.5c-0.7-0.7-0.7-1.6-0.2-2.5c0.3-0.5,0.6-1,1-1.5
		c4.8-6.3,9.6-12.7,14.4-19C711.3,795.5,712,794.5,712.3,793.5z"/>
	<path id="XMLID_544_" class="st3" d="M1082.9,1450.5c0-6.8,0-13.6,0-20.4c0-0.7,0-1.5,0-2.2c0.1-1.4,0.7-2.1,2.2-2.4
		c0.7-0.1,1.5-0.2,2.2-0.2c2.5,0,5,0.1,7.5,0c4.5-0.1,7.2,2.4,8.8,6.1c2.3,5,2.2,10.3,0.7,15.5c-1.5,4.8-5.2,7.3-9.8,7.6
		c-4.3,0.2-4.5,1.4-4.4,4.7c0.2,4.4,0.1,8.8,0.1,13.3c0,2.6-0.9,3.4-3.5,3.3c-0.7,0-1.5-0.1-2.2-0.4c-0.9-0.3-1.5-0.9-1.5-1.9
		c0-0.7,0-1.5,0-2.2C1082.9,1464.3,1082.9,1457.4,1082.9,1450.5C1082.9,1450.5,1082.9,1450.5,1082.9,1450.5z M1090,1440
		C1090,1440,1090,1440,1090,1440c0,2.2,0,4.4,0,6.6c0.1,2,1.3,2.9,3.2,2.4c0.6-0.2,1.2-0.4,1.6-0.7c1.5-1.4,2.8-3.1,3.1-5.2
		c0.4-2.5,0.3-5-0.5-7.4c-0.6-2.2-2-3.9-4.4-4.4c-1.8-0.4-2.9,0.5-3,2.2C1090,1435.6,1090,1437.8,1090,1440z"/>
	<path id="XMLID_541_" class="st3" d="M1194.1,1475.8c-2.5,0-3.4-0.7-3.9-3.2c-0.4-1.9-0.7-3.8-1.1-5.7c-0.2-0.9-0.8-1.6-1.9-1.6
		c-2.2,0-4.4-0.1-6.6,0c-1.6,0.1-2.3,0.8-2.5,2.5c-0.2,1.6-0.4,3.2-0.7,4.8c-0.7,2.7-3.3,3.9-5.9,2.8c-0.7-0.3-1.2-0.9-1.1-1.7
		c0.2-1.6,0.4-3.2,0.8-4.8c2.8-12.4,5.6-24.7,8.4-37.1c0.2-1,0.4-2,0.6-3c0.6-2.7,1.5-3.5,4.2-3.5c1.7,0,2.5,0.5,2.9,2.1
		c0.8,3.6,1.5,7.2,2.3,10.8c0.8,4,1.7,8.1,2.6,12.1c1.7,7.3,3.3,14.7,5.1,22c0.5,2-0.2,3.1-2.3,3.3
		C1194.7,1475.8,1194.4,1475.8,1194.1,1475.8z M1184,1440.8c-0.9,0.8-1,1.6-1.2,2.3c-0.7,3.9-1.4,7.8-2.1,11.7
		c-0.8,4.3-0.6,5.1,4.5,4.8c1.8-0.1,2.5-0.8,2.2-2.5c-0.8-4.9-1.7-9.8-2.6-14.7C1184.6,1441.9,1184.3,1441.6,1184,1440.8z"/>
	<path id="XMLID_540_" class="st4" d="M1343.3,1450.5c0-6.9,0-13.9,0-20.8c0-0.7,0-1.5,0.1-2.2c0.1-0.8,0.6-1.4,1.3-1.6
		c0.7-0.2,1.4-0.3,2.2-0.4c3.8,0,7.7,0,11.5,0c0.4,0,0.9,0,1.3,0.1c1.1,0.2,1.8,1,1.8,2.2c0.1,1.4-0.6,2.6-1.7,2.8
		c-1,0.2-2,0.1-3.1,0.2c-1.5,0.1-3,0-4.4,0.2c-1.3,0.2-2.1,1.1-2.2,2.4c-0.1,3.4-0.1,6.8,0,10.2c0,1.9,1,2.9,3.1,3
		c1.8,0.1,3.5,0,5.3,0.1c1.3,0.1,2.1,1,2.2,2.3c0.1,1.5-0.7,2.6-2.3,2.7c-1.6,0.1-3.2,0-4.9,0.1c-2.6,0.1-3.4,0.9-3.5,3.5
		c-0.1,4-0.1,8,0,11.9c0,2,0.9,2.9,3,3c1.9,0.1,3.8,0,5.7,0c0.9,0,1.7,0.4,2.2,1.3c1,1.8,0.1,3.9-1.9,3.9c-4.4,0.1-8.8,0.1-13.3,0
		c-2.1-0.1-2.7-0.9-2.7-3.2C1343.3,1465,1343.3,1457.7,1343.3,1450.5C1343.3,1450.5,1343.3,1450.5,1343.3,1450.5z"/>
	<path id="XMLID_539_" class="st4" d="M1100,1401.7c-1.5,0-2.9-0.2-4.3-0.9c-3.7-1.9-4.3-2.8-3.6-6.9c0.3-1.6,1.1-2.1,2.4-1.2
		c1.3,0.9,2.6,1.2,4.1,1.2c3.6,0,6.9-2.6,7.5-6.2c0.5-2.6,0.1-5-1.4-7.2c-3-4.2-5.9-8.5-8.9-12.7c-4.4-6-5.7-12.5-4.1-19.7
		c0.9-4,3.2-7,6.9-8.7c3.2-1.5,6.6-1.3,9.8,0.3c2.1,1,2.8,2.9,2.6,5.2c-0.2,1.7-0.9,2.9-2.8,2.1c-1.1-0.5-2.3-0.7-3.5-0.7
		c-3.5,0-6.2,2.1-6.9,5.6c-0.6,2.8,0.1,5.3,1.5,7.6c1.1,1.8,2.3,3.4,3.5,5.1c3.2,4.4,6.8,8.7,8.7,13.8c2.2,5.9,2.2,11.9-1.3,17.4
		C1108.1,1399.8,1104.5,1401.6,1100,1401.7z"/>
	<path id="XMLID_538_" class="st4" d="M1205.8,1385.8c0,3.9-0.3,7-2.3,9.9c-3,4.5-7.2,6.4-12.5,5.9c-2-0.2-3.5-1.5-5.2-2.4
		c-0.4-0.2-0.8-0.9-0.9-1.5c-0.3-1.5-0.2-2.9,0.2-4.4c0.2-1,1.1-1.4,2-0.9c0.9,0.5,1.7,1.1,2.8,1.3c5.1,1.1,9.2-3.4,9.3-7.2
		c0-2.3-0.3-4.4-1.7-6.3c-2.9-4.1-5.7-8.3-8.6-12.3c-2.5-3.4-4.1-7.1-4.7-11.3c-0.5-3.5-0.2-6.9,1-10c2.4-6.4,7.7-9.2,14.5-7.6
		c3,0.7,4.4,2.6,4.3,5.3c0,2-0.7,3.7-3.2,2.5c-0.5-0.2-1.1-0.3-1.7-0.4c-5.7-1-9.1,3.8-8.4,8.6c0.3,1.9,0.9,3.7,2.1,5.3
		c1.6,2.3,3.2,4.6,4.9,6.8c2.2,3,4.3,6,6,9.3C1205.3,1379.7,1206,1383,1205.8,1385.8z"/>
	<path id="XMLID_537_" class="st3" d="M1067.3,1425.4c2.2,0,4.4-0.1,6.6,0c1.6,0.1,2.4,1.1,2.4,2.6c0,1.8-0.8,3-2.4,3.1
		c-1.9,0.1-3.8,0-5.8,0.1c-2.4,0.1-3,0.8-3,3.3c0,2.9-0.1,5.9-0.1,8.8c0,2.1,0.8,3,2.9,3.1c1.8,0.1,3.5,0,5.3,0.1
		c2.1,0.1,3.2,2.3,2.2,4.2c-0.4,0.7-1,1.1-1.8,1.1c-1.6,0-3.2,0-4.9,0.1c-3,0.1-3.7,0.8-3.7,3.7c0,3.8,0,7.7,0,11.5
		c0,2,0.7,2.8,2.5,2.9c1.9,0.1,3.8,0,5.7,0.1c2,0.1,3,1.1,3,3c0,1.5-0.8,2.6-2.4,2.6c-4.6,0.1-9.1,0.1-13.7-0.1
		c-1.9-0.1-2.5-0.9-2.5-2.9c0-2.5,0-5,0-7.5c0-11.8,0-23.6,0-35.4c0-0.3,0-0.6,0-0.9c0.1-2.7,0.7-3.3,3.4-3.5c0.9-0.1,1.8,0,2.7,0
		C1064.9,1425.3,1066.1,1425.3,1067.3,1425.4C1067.3,1425.4,1067.3,1425.4,1067.3,1425.4z"/>
	<path id="XMLID_536_" class="st4" d="M1531.3,1453.5c0-6.1,0-12.1,0-18.2c0-0.6,0.1-1.2,0-1.8c-0.1-1.5-0.9-2.4-2.5-2.6
		c-0.9-0.1-1.8-0.1-2.6-0.1c-2.1-0.2-3.1-2.4-2.1-4.2c0.3-0.6,0.8-0.8,1.4-0.9c0.7-0.1,1.5-0.1,2.2-0.1c4.6,0,9.2,0,13.7,0
		c0.7,0,1.5,0,2.2,0.1c1.8,0.2,2.6,0.9,2.5,2.4c0,1.6-0.8,2.5-2.3,2.7c-0.9,0.1-1.8,0-2.7,0.1c-2.4,0.3-3.1,1-3.1,3.4
		c0.1,12.1,0.1,24.2,0.2,36.3c0,0.9,0,1.8-0.1,2.7c-0.1,1.3-1,2.1-2.3,2.3c-0.7,0.1-1.5,0.1-2.2,0c-1.8-0.2-2.5-1-2.6-2.9
		c0-4.3,0-8.6,0-12.8C1531.3,1457.6,1531.3,1455.5,1531.3,1453.5C1531.3,1453.5,1531.3,1453.5,1531.3,1453.5z"/>
	<path id="XMLID_535_" class="st4" d="M1327.6,1425.5c2.9-0.4,5.1,1.1,6.5,3.8c0.4,0.8,0.7,1.7,0,2.5c-0.6,0.6-1.4,0.4-2,0
		c-0.4-0.2-0.8-0.4-1.2-0.6c-3.5-1.1-5.5-0.5-7.7,2.4c-1.3,1.7-1.6,3.5-0.9,5.4c0.6,1.6,1.4,3.3,2.5,4.6c1.7,2,3.4,4.1,5.2,6.1
		c1.9,2.1,3.5,4.4,4.8,6.9c2.4,4.4,2,11.6-1.1,14.6c-4.6,4.4-8.9,5.7-14.4,3.1c-1.5-0.7-2.3-1.8-2.3-3.4c0-1.4,1-2.2,2.3-1.7
		c0.5,0.2,1,0.6,1.6,0.8c2.8,0.8,5.1,0.4,7.2-1.9c2-2.1,2.3-4.4,1.4-6.9c-0.5-1.4-1.2-2.7-2.1-3.8c-2.4-2.8-4.7-5.6-7-8.5
		c-2.3-2.8-3.9-5.9-4.4-9.5c-0.7-5.2,1.7-10.1,6.3-12.6C1323.9,1425.7,1324.6,1425.5,1327.6,1425.5z"/>
	<path id="XMLID_534_" class="st3" d="M738.2,907c0,4.6,0,9.1,0,13.7c0,0.9,0,1.8-0.1,2.6c-0.1,0.9-0.8,1.7-1.7,1.8
		c-2.9,0.4-5.9,0.4-8.8,0c-1.1-0.1-1.8-0.9-1.9-2.1c-0.1-0.7-0.1-1.5-0.1-2.2c0-9.4,0-18.9,0-28.3c0-0.4-0.1-0.9,0-1.3
		c0.1-2.3,1-3.3,3.1-3.5c2.1-0.1,4.1-0.1,6.2,0c2.2,0.1,3.2,1.1,3.3,3.3c0,0.6,0,1.2,0,1.8C738.2,897.6,738.2,902.3,738.2,907
		C738.2,907,738.2,907,738.2,907z"/>
	<path id="XMLID_533_" class="st4" d="M458,907.1c0,4.4,0,8.8,0,13.3c0,0.9,0,1.8-0.1,2.6c-0.1,1.2-0.8,2-1.9,2.1
		c-2.8,0.3-5.6,0.4-8.4,0c-1.3-0.2-2-1.1-2.1-2.5c-0.1-0.6,0-1.2,0-1.8c0-9.3,0-18.6,0-27.9c0-0.6-0.1-1.2,0-1.8
		c0.1-2.2,1-3.4,3.2-3.5c2.2-0.1,4.4-0.1,6.6,0c1.6,0.1,2.4,1,2.6,2.5c0.1,0.9,0.1,1.8,0.1,2.6C458.1,897.7,458,902.4,458,907.1z"/>
	<path id="XMLID_532_" class="st3" d="M1145.9,1450.6c0-7.1,0-14.1,0-21.2c0-3.3,1.4-4.5,4.7-4.1c1.3,0.2,2.1,1,2.3,2.3
		c0.1,0.7,0,1.5,0,2.2c0,12.2,0,24.5-0.1,36.7c0,0.4-0.1,0.9,0,1.3c0.1,1.2,0.7,1.9,1.9,2.1c1.5,0.2,2.9,0.1,4.4,0.2
		c1.2,0,2.4,0,3.5,0.2c1.4,0.2,2.2,1.4,2.1,2.9c-0.1,1.3-0.8,2.2-2.1,2.4c-0.7,0.1-1.5,0.1-2.2,0.1c-3.4,0-6.8,0-10.2,0
		c-0.6,0-1.2,0-1.8-0.1c-1.6-0.2-2.4-1-2.5-2.5c-0.1-0.6,0-1.2,0-1.8C1145.9,1464.4,1145.9,1457.5,1145.9,1450.6z"/>
	<path id="XMLID_531_" class="st4" d="M1400.2,1450.4c0-6.8,0-13.6,0-20.4c0-0.7,0-1.5,0-2.2c0.1-1.4,0.8-2.1,2.3-2.2
		c0.9,0,1.8,0,2.6,0.2c1.2,0.2,1.8,0.9,1.9,2.1c0,0.4,0,0.9,0,1.3c0,14.2,0,28.4,0,42.5c0,3.1-0.9,3.9-4,3.8c-2.1-0.1-2.8-0.8-2.8-3
		c0-5,0-10,0-15.1C1400.3,1455.1,1400.2,1452.7,1400.2,1450.4C1400.2,1450.4,1400.2,1450.4,1400.2,1450.4z"/>
	<path id="XMLID_530_" class="st1" d="M753.3,836.9c1.1,1.4,2.7,1.6,4.3,1.6c1.3,0,2.7-0.2,3.9,0.4c0.5,0.2,1,0.6,0.8,1.4
		c-0.1,0.5-0.5,0.7-1,0.7c-3.2,0.3-6.4,0.7-9.6,0.9c-1.3,0.1-2.6,0.2-3.6,1.3c-1.3,0.5-2.6,0.2-3.9,0.2c-3.5-0.1-7.1-0.2-10.6-0.3
		c-9.3-0.3-18.5-0.6-27.8-0.9c-2.1-0.1-4.1,0.1-6.2,0.1c-2,0-3.1-0.6-3-1.8c0.1-1.2,1-2,2.8-2.3c0.9-0.1,1.8-0.2,2.6-0.2
		c15.6,0.1,31.2-1,46.8-1.4C750.4,836.7,751.9,836.4,753.3,836.9z"/>
	<path id="XMLID_529_" class="st0" d="M670.6,896.6c0.4-1,1.3-1.1,2.2-1.1c1.9,0,3.8,0.1,5.7,0.1c2.2,0,2.8-0.7,3.1-2.9
		c0.1-0.4,0.1-0.9,0.1-1.3c0-2.6-0.8-3.5-3.3-3.5c-5.9-0.1-11.8-0.1-17.6,0c-2,0-2.9,0.9-3.1,3c-0.1,0.7,0,1.5,0,2.2
		c0,9.3,0,18.5,0,27.8c0,1.8,0,3.5,1.6,4.8c-0.5,0.5-1.1,0.3-1.6,0c-1.3-1-1.6-2.3-1.6-3.9c0-9.9,0-19.7,0-29.6
		c0-0.9,0.1-1.8,0.3-2.6c0.6-2,1.6-2.9,3.8-2.9c2.2-0.1,4.4,0,6.6,0c4,0,8,0,11.9,0c2.4,0,3.6,0.9,4.2,3.6c0.3,1.4,0.2,2.9-0.3,4.3
		c-0.6,1.5-1.5,2.5-3.3,2.5C676.5,896.9,673.5,897.2,670.6,896.6z"/>
	<path id="XMLID_528_" class="st0" d="M670.7,916.7c-0.5,0.1-0.8-0.3-1-0.7c-0.5-1.2-0.3-2.3,0-3.5c0.4-1.3,1.2-2,2.6-2
		c1.5,0,2.9,0.1,4.4,0c2.3-0.1,3.4-1.4,3.4-3.7c0-2.3-1.1-3.8-3.2-4c-1.2-0.1-2.4,0-3.5,0c-2.8,0-3.7-0.8-3.9-3.6
		c-0.1-1-0.2-2.1,1.1-2.6c0.6,4.7,0.6,4.7,5.2,4.8c0.7,0,1.5,0,2.2,0.1c2,0.2,3.2,1.4,3.5,3.3c0,0.1,0,0.3,0,0.4
		c0.6,5.1-0.8,6.8-5.9,6.7C671.1,912,670.7,912.8,670.7,916.7z"/>
	<path id="XMLID_526_" class="st0" d="M452.7,1312.4c0.2-0.5,0.5-1.2,1.1-1.3c5.1-0.9,10.1-1.9,15.3-0.8c-0.4,0.7-0.9,1.2-1.7,1.3
		c-4.6,0.4-9.3,0.7-13.9,1C453.3,1312.6,453,1312.5,452.7,1312.4z"/>
	<path id="XMLID_525_" class="st0" d="M472.9,1310.4c4.3-1.1,8.5-0.3,12.7,0.8c0.4,0.1,0.7,0.8,1.1,1.2c-0.9,0.1-1.8,0.3-2.6,0.1
		c-2.9-0.6-5.7-0.8-8.6-0.8C474.4,1311.7,473.5,1311.4,472.9,1310.4z"/>
	<path id="XMLID_524_" class="st0" d="M516.8,1331.1c0.7,0.2,1.4,0.7,1.5,1.4c0.3,2.6,0.3,5.3,0,7.9c-0.1,0.8-0.7,1.2-1.4,1.5
		C516.8,1338.4,516.8,1334.8,516.8,1331.1z"/>
	<path id="XMLID_523_" class="st0" d="M415.5,1320.3c1.6-2.5,4-2.9,6.7-2.8c0.2,0,0.4,0.3,0.7,0.5
		C420.5,1319.4,418.1,1320.3,415.5,1320.3z"/>
	<path id="XMLID_522_" class="st0" d="M681.8,924.3c-0.2-1.9-0.3-3.9,0.1-5.8c0.3,0.1,0.7,0.2,0.7,0.4c0.7,1.7,0.8,3.4-0.1,5.1
		C682.5,924.1,682.1,924.2,681.8,924.3z"/>
	<path id="XMLID_521_" class="st0" d="M492.7,1313.5c2.6-1.2,3.4-1,5.5,1.5C496.3,1315,494.3,1314.8,492.7,1313.5z"/>
	<path id="XMLID_520_" class="st0" d="M425.2,1317.7c1.6-1.9,2.7-2.3,4.7-1.5C428.5,1317.4,427,1317.9,425.2,1317.7z"/>
	<path id="XMLID_519_" class="st0" d="M408.5,1322.3c0.2-1.4,1.3-1.6,2.3-2c0.8-0.3,1.6-0.5,2.2,0.3
		C411.7,1321.8,410.2,1322.3,408.5,1322.3z"/>
	<path id="XMLID_518_" class="st0" d="M440.3,1314.3c1.2-1.9,1.7-2,3.7-0.7C443,1314.7,441.7,1314.5,440.3,1314.3z"/>
	<path id="XMLID_517_" class="st0" d="M483.5,1399.1c0.3,1.9-0.3,3.3-2.1,4C481.2,1401.4,481.9,1400,483.5,1399.1z"/>
	<path id="XMLID_516_" class="st0" d="M431.4,1315.9c0.8-1.4,0.9-1.4,2-0.5C432.9,1316,432.2,1316.2,431.4,1315.9z"/>
	<path id="XMLID_515_" class="st0" d="M436.7,1315c0.8-1.3,0.9-1.4,2-0.5C438.2,1315.2,437.5,1315.3,436.7,1315z"/>
	<path id="XMLID_514_" class="st0" d="M489.2,1312.7c1.1-0.8,1.2-0.8,2,0.6C490.3,1313.5,489.7,1313.4,489.2,1312.7z"/>
	<path id="XMLID_513_" class="st0" d="M446.5,1313.3c0.7-1.4,0.8-1.5,2-0.6C448,1313.4,447.3,1313.5,446.5,1313.3z"/>
	<path id="XMLID_512_" class="st0" d="M481.1,1404.7c0.9,1.1,0.9,1.2-0.5,2C480.3,1405.9,480.4,1405.3,481.1,1404.7z"/>
	<path id="XMLID_511_" class="st0" d="M486.2,1393.9c0.3,1.2-0.2,1.9-1.5,2.1C484.7,1394.9,485.3,1394.2,486.2,1393.9z"/>
	<path id="XMLID_510_" class="st0" d="M516.6,1343.6c0.8,1.1,0.8,1.2-0.5,2C515.8,1344.8,515.9,1344.1,516.6,1343.6z"/>
	<path id="XMLID_509_" class="st1" d="M804.4,962.8c-0.5,1.8-0.5,1.9-2.3,1.8C802.4,963.5,803.2,962.9,804.4,962.8z"/>
	<path id="XMLID_508_" class="st1" d="M848.2,988.8c0.1-1.1,0.9-1.5,1.8-1.7C849.8,988.1,849.3,988.8,848.2,988.8z"/>
	<path id="XMLID_507_" class="st1" d="M869.7,962.4c0-0.8,0.4-1.3,1.1-1.6C870.9,961.7,870.5,962.2,869.7,962.4z"/>
	<path id="XMLID_504_" class="st5" d="M1069.2,1027.2c-0.4-0.5-0.4-1.1,0-1.6c1.4-2,3.3-3.3,5.2-4.8c9.2-7.4,18.2-15,27-22.9
		c8.2-7.3,16.1-14.8,23.8-22.5c5.8-5.7,11.4-11.6,16.9-17.6c9-9.8,17.6-19.9,25.6-30.5c6.6-8.7,13.1-17.5,18.6-26.9
		c7.9-13.3,15.4-26.9,20.8-41.5c6.9-18.3,11.9-37.1,13-56.7c0.8-14.8,0.1-29.5-3-44.1c-1.6-7.4-3.6-14.6-6-21.7
		c-2.6-7.7-5.6-15.2-9.1-22.5c-3.9-8.3-8.5-16.2-13.4-23.9c-9.5-15-20.6-28.8-32.6-41.8c-14.9-16.1-31-30.7-48-44.4
		c-13.3-10.8-27.1-20.8-41.2-30.5c-11.3-7.7-22.9-15.1-34.6-22.2c-9.1-5.5-18.2-10.9-27.5-16c-7.1-3.9-14.1-8-21.2-11.8
		c-7.5-4-15.1-7.9-22.8-11.8c-7.9-4-15.8-8-23.7-11.9c-2.6-1.3-5.3-2.6-7.9-3.8c-1.1-0.5-2-1.2-2.7-2.2c6.5,0.5,12.8,2.3,19.1,3.8
		c5,1.2,10,2.5,15,3.7c5.6,1.3,11.2,2.6,16.8,3.9c4.9,1.2,9.7,2.5,14.6,3.8c5.4,1.4,10.9,2.7,16.3,4.1c3.4,0.9,6.9,1.7,10.3,2.6
		c7.5,2.1,15,4.3,22.5,6.4c10.8,3.1,21.6,6,32.4,9.2c8.2,2.4,16.3,5,24.5,7.6c3.4,1.1,6.7,2.1,10.1,3.3c4.8,1.6,9.5,3.1,14.3,4.7
		c3.2,1.1,6.4,2.2,9.6,3.3c5.8,2.1,11.6,4.2,17.5,6.3c1.1,0.4,2.3,0.7,3.4,1.1c6.1,2.3,12.1,4.7,18.2,7c5.6,2.2,11.4,4.1,16.9,6.6
		c5.3,2.3,10.7,4.2,15.9,6.7c6,2.9,12.2,5.3,18.2,8c1.9,0.8,3.7,1.8,5.6,2.7c4.7,2.1,9.4,4.2,14.1,6.4c6.1,3,12.1,6.2,18.1,9.2
		c7.8,3.9,15.4,8.1,22.9,12.4c8.1,4.6,16,9.5,23.8,14.5c9.7,6.2,19.1,12.8,28.2,19.8c9.6,7.3,18.8,15.2,27.6,23.6
		c13.2,12.6,25.1,26.2,35.1,41.4c4.6,7,9,14.2,12.5,21.9c5.5,12,9.7,24.4,12.5,37.3c1.9,8.8,3,17.8,3.3,26.8
		c0.5,12.7-0.9,25.3-3.3,37.8c-2.1,10.6-5,21-8.5,31.2c-2.9,8.5-6.3,16.8-10.4,24.9c-0.8,1.7-1.9,3.8-1.8,5.8
		c-3,1.7-5.5,2.5-8.4,3.6c-5,1.8-9.8,4-14.7,6.1c-7.1,2.9-14.1,6.1-21.3,8.7c-6.2,2.3-12.2,5.3-18.4,7.5c-7.9,2.8-15.5,6.6-23.4,9.4
		c-4.6,1.6-9,3.7-13.5,5.6c-3.3,1.4-6.6,2.6-9.8,4c-5.7,2.3-11.5,4.7-17.2,7c-8.1,3.3-16.1,6.5-24.2,9.7c-1.9,0.8-3.8,1.5-5.7,2.4
		c-6.3,3-12.9,5.1-19.3,7.8c-5.4,2.3-10.9,4.5-16.3,6.8c-5.5,2.2-10.9,4.4-16.4,6.6c-4.8,1.9-9.5,3.9-14.3,5.9
		c-2.7,1.1-5.4,2.3-8.2,3.4c-7.9,3-15.5,6.5-23.4,9.4c-5.3,1.9-10.3,4.4-15.5,6.5c-1.9,0.8-3.9,1.4-5.8,2.2
		c-7.8,3.1-15.6,6.2-23.4,9.4c-2.7,1.1-5.3,2.4-7.6,4.2c-1.3-0.1-2.5,0.1-3.7,0.5c-1.6-0.3-3.3-0.4-4.9,0c-1.4-0.6-2.9-0.3-4.4-0.2
		c-3.8,0.1-7.6,0.2-11.5,0.3C1070,1027.6,1069.6,1027.4,1069.2,1027.2z"/>
	<path id="XMLID_502_" class="st4" d="M747.6,1007.5c2.2-0.7,4.3,0,6.5,0.2c3.5,0.4,6.9,1,10.4,1.6c0.2,0,0.4,0.3,0.7,0.5
		c-1.8,0.7-3.7,0.5-5.5,0.2c-3.7-0.8-7.3-1.7-11.1-1.7C748,1008.3,747.7,1008,747.6,1007.5z"/>
	<path id="XMLID_501_" class="st4" d="M768.8,1010.4c1-0.6,2-0.4,3-0.2c4.4,0.5,8.7,1.1,13.1,1.7c0.2,0,0.5,0.3,0.7,0.5
		c-1,0.8-2.3,0.6-3.3,0.4c-4.4-0.6-8.8-1.4-13.2-2.1C769,1010.7,768.9,1010.5,768.8,1010.4z"/>
	<path id="XMLID_500_" class="st3" d="M1086.2,1027.6c1.7-0.4,3.3-0.3,4.9,0C1089.5,1027.6,1087.8,1027.6,1086.2,1027.6z"/>
	<path id="XMLID_499_" class="st4" d="M1401.6,901c-0.1-2,0.9-4.1,1.8-5.8c4-8.1,7.5-16.4,10.4-24.9c3.5-10.2,6.4-20.6,8.5-31.2
		c2.4-12.5,3.8-25.1,3.3-37.8c-0.4-9-1.4-17.9-3.3-26.8c-2.8-12.9-6.9-25.3-12.5-37.3c-3.5-7.6-7.9-14.8-12.5-21.9
		c-10-15.3-21.9-28.9-35.1-41.4c-8.8-8.4-18-16.2-27.6-23.6c-9.1-7-18.5-13.6-28.2-19.8c-7.8-5-15.7-9.9-23.8-14.5
		c-7.6-4.3-15.1-8.5-22.9-12.4c-6.1-3-12-6.3-18.1-9.2c-4.6-2.3-9.4-4.3-14.1-6.4c-1.9-0.9-3.7-1.8-5.6-2.7
		c-6.1-2.7-12.3-5.1-18.2-8c-5.2-2.5-10.6-4.4-15.9-6.7c-5.5-2.4-11.3-4.4-16.9-6.6c-6.1-2.3-12.1-4.7-18.2-7
		c-1.1-0.4-2.3-0.7-3.4-1.1c-5.8-2.1-11.6-4.2-17.5-6.3c-3.2-1.1-6.4-2.2-9.6-3.3c-4.8-1.6-9.5-3.2-14.3-4.7
		c-3.4-1.1-6.7-2.2-10.1-3.3c-8.2-2.5-16.3-5.1-24.5-7.6c-10.8-3.2-21.6-6.1-32.4-9.2c-7.5-2.1-15-4.3-22.5-6.4
		c-3.4-0.9-6.9-1.7-10.3-2.6c-5.4-1.4-10.9-2.7-16.3-4.1c-4.9-1.2-9.7-2.6-14.6-3.8c-5.6-1.4-11.2-2.6-16.8-3.9
		c-5-1.2-10-2.5-15-3.7c-6.3-1.5-12.6-3.3-19.1-3.8c-3.7,0-6.5-2.5-9.8-3.8c-0.2-0.1-0.3-0.5-0.3-0.8c-0.1-0.3,0.1-0.5,0.5-0.6
		c1.5-0.4,2.9-0.3,4.4-0.2c2.9,0.2,5.9,0.5,8.8,0.9c7.9,1.1,15.9,1.4,23.8,1.9c6,0.4,12,1.2,18.1,1.8c5.1,0.5,10.3,1,15.4,1.5
		c8.5,0.9,17,1.6,25.5,2.6c10.4,1.2,20.8,2.9,31.2,3.9c8.7,0.8,17.2,2.6,25.9,3.4c4.7,0.4,9.3,1.3,14,2.1c9.3,1.5,18.6,3,28,4.5
		c8.3,1.4,16.6,2.7,24.9,4.1c5.8,1,11.6,2.2,17.4,3.3c7.4,1.4,14.8,2.9,22.2,4.3c4,0.8,8.1,1.6,12.1,2.5c9.1,2,18.2,3.8,27.3,5.9
		c10.6,2.5,21.2,5,31.8,7.7c7.3,1.8,14.5,3.9,21.8,5.9c4.4,1.2,8.8,2.4,13.3,3.5c6.3,1.5,12.5,3.3,18.8,5.1
		c4.4,1.3,8.8,2.3,13.3,3.4c3.1,0.8,6.2,2,9.3,2.9c9.9,3,19.9,5.7,29.6,9.2c6.2,2.3,12.6,4.1,18.9,6.2c3.2,1.1,6.4,2.1,9.6,3.3
		c11.8,4.3,23.6,8.4,35.3,12.9c12.1,4.7,24.2,9.4,36,14.7c8.6,3.9,17.4,7.3,25.9,11.4c8.4,4,16.9,7.7,25.1,12.1
		c3.6,1.9,7.4,3.6,11.1,5.6c5.7,3.1,11.6,5.9,17.2,9c8.9,4.9,17.8,9.8,26.6,15c10.5,6.2,21.1,12.3,31.2,19.3
		c12.6,8.7,25.2,17.5,37.4,26.8c9,6.9,18,13.9,26.7,21.2c10.2,8.7,20.4,17.5,30.1,26.7c6.7,6.3,13.1,12.8,19.7,19.2
		c0.7,0.7,1.5,1.4,2.1,2.2c0.9,1.1,0.6,2.3-0.7,2.9c-4.3,1.8-8.7,3.6-13.1,5.4c-5.3,2.2-10.7,4.3-16,6.5c-2.9,1.2-5.8,2.3-8.6,3.5
		c-10.6,4.4-21.3,8.8-31.9,13.1c-5.5,2.2-11,4.3-16.5,6.5c-2.3,0.9-4.6,2-6.9,2.9c-9.5,3.9-19.1,7.9-28.6,11.8
		c-9.4,3.8-19,7.4-28.3,11.4c-6.9,3-14,5.6-20.9,8.4c-9.4,3.9-18.7,8-28.1,11.8c-10,4.1-20,7.9-30,11.9c-9.6,3.9-19.1,7.9-28.6,11.9
		c-4.5,1.9-9.1,3.6-13.6,5.4c-10,4.1-19.9,8.2-29.9,12.2C1403.5,900.3,1403.2,900.5,1401.6,901z"/>
</g>
<path id="XMLID_1_" class="st3" d="M670.4,896.1"/>
</svg>
